<?xml version="1.0" standalone="no"?><!DOCTYPE svg PUBLIC "-//W3C//DTD SVG 1.1//EN" "http://www.w3.org/Graphics/SVG/1.1/DTD/svg11.dtd"><svg class="icon" width="200px" height="200.00px" viewBox="0 0 1024 1024" version="1.1" xmlns="http://www.w3.org/2000/svg"><path d="M779.7248 452.1984c0-123.904-103.8848-224.3584-232.0384-224.3584S315.648 328.2944 315.648 452.1984c0 89.3952 54.1184 166.5536 132.4032 202.6496 0.3072 0.1536 0.6144 0.3072 0.9728 0.4096v63.488h197.376v-63.5392c78.7456-35.7888 133.3248-113.2032 133.3248-203.008z" fill="#F7D14A" /><path d="M535.5008 234.7008s147.3536 98.7648 144.7424 233.984c0 72.9088-84.2752 145.4592-108.4416 157.184 0 52.9408 0.512 90.2144 0.512 90.2144l27.4432 2.7136 5.6832-63.5392 79.616-55.9616 53.7088-113.5616-11.776-104.1408-36.9152-73.3184-79.7696-56.832-74.8032-16.7424z" fill="#F3B41B" /><path d="M605.3888 729.0368H408.0128c-5.632 0-10.24-4.608-10.24-10.24v-57.0368c-76.9024-37.5296-127.6416-111.7696-132.864-195.0208-0.3584-5.632 3.9424-10.496 9.5744-10.8544 5.6832-0.3072 10.496 3.9424 10.8544 9.5744 4.9152 77.5168 53.1968 146.5344 126.0032 180.0704l0.9216 0.4096c3.6352 1.6896 5.9392 5.3248 5.9392 9.3184v53.2992h176.896v-53.2992c0-3.9936 2.3552-7.68 5.9904-9.3184 77.3632-35.2256 127.3344-111.2576 127.3344-193.7408 0-118.0672-99.4816-214.1184-221.7984-214.1184-64.6656 0-125.952 27.1872-168.192 74.5472-3.7888 4.1984-10.24 4.608-14.4384 0.8192-4.1984-3.7888-4.608-10.24-0.8192-14.4384 46.08-51.712 112.9984-81.408 183.5008-81.408 133.5808 0 242.2784 105.216 242.2784 234.5984 0 88.32-52.1216 169.8816-133.3248 209.5616v57.0368c0 5.6832-4.5568 10.24-10.24 10.24z" fill="#010101" /><path d="M277.4528 427.8784c-0.5632 0-1.0752-0.0512-1.6384-0.1536a10.25024 10.25024 0 0 1-8.4992-11.7248c3.4816-21.8624 10.1888-43.0592 19.8144-63.0784 2.4576-5.12 8.6016-7.2192 13.6704-4.7616 5.0688 2.4576 7.2192 8.6016 4.7616 13.6704-8.8064 18.176-14.848 37.5296-18.0224 57.3952-0.8192 5.0688-5.1712 8.6528-10.0864 8.6528z" fill="#010101" /><path d="M606.4128 954.5728H478.3104c-39.5264 0-71.5776-32.0512-71.5776-71.5776v-164.1984h271.2576v164.1984c0 39.5776-32.0512 71.5776-71.5776 71.5776z" fill="#58DDDA" /><path d="M573.7472 724.9408v178.432s3.9424 38.7072-31.3856 51.2512c51.968 0 99.328-3.1744 99.328-86.528v-143.1552h-67.9424z" fill="#3BCCC8" /><path d="M570.1632 964.8128H442.0608c-45.1072 0-81.8176-36.7104-81.8176-81.8176v-164.1984c0-5.632 4.608-10.24 10.24-10.24h271.2576c5.632 0 10.24 4.608 10.24 10.24v164.1984c0 45.1584-36.7104 81.8176-81.8176 81.8176z m-189.44-235.776v153.9584c0 33.792 27.4944 61.3376 61.3376 61.3376h128.1024c33.792 0 61.3376-27.4944 61.3376-61.3376v-153.9584H380.7232z" fill="#010101" /><path d="M525.2608 175.0528c-16.9472 0-30.72-13.7728-30.72-30.72V92.5696c0-16.9472 13.7728-30.72 30.72-30.72s30.72 13.7728 30.72 30.72v51.7632c0 16.9472-13.7216 30.72-30.72 30.72zM361.4208 215.5008c-10.752 0-21.1968-5.632-26.8288-15.6672l-25.344-45.1072c-8.2944-14.7968-3.072-33.536 11.7248-41.8304s33.4848-3.072 41.8304 11.7248l25.344 45.1072c8.2944 14.7968 3.072 33.536-11.7248 41.8304-4.7104 2.6624-9.8816 3.9424-15.0016 3.9424zM246.3744 337.2032c-5.3248 0-10.7008-1.3824-15.5648-4.2496l-44.544-26.3168c-14.592-8.6016-19.456-27.4432-10.8544-42.0864 8.6016-14.592 27.4944-19.456 42.0864-10.8544l44.544 26.3168c14.592 8.6016 19.456 27.4432 10.8544 42.0864a30.91968 30.91968 0 0 1-26.5216 15.104zM199.2704 499.5584h-0.2048l-51.7632-0.3072a30.71488 30.71488 0 0 1-30.5152-30.9248c0.1024-16.896 13.824-30.5152 30.72-30.5152h0.2048l51.7632 0.3072c16.9472 0.1024 30.6176 13.9264 30.5152 30.9248-0.1024 16.896-13.824 30.5152-30.72 30.5152zM198.3488 687.2064a30.69952 30.69952 0 0 1-15.7184-57.088l44.4928-26.4704c14.592-8.704 33.4336-3.8912 42.0864 10.7008 8.6528 14.592 3.8912 33.4336-10.7008 42.0864l-44.4928 26.4704c-4.9152 2.9184-10.3424 4.3008-15.6672 4.3008zM688.0256 215.5008c-5.12 0-10.24-1.28-15.0016-3.9424a30.67904 30.67904 0 0 1-11.7248-41.8304l25.344-45.1072c8.2944-14.7968 27.0336-20.0192 41.8304-11.7248a30.67904 30.67904 0 0 1 11.7248 41.8304l-25.344 45.1072a30.7712 30.7712 0 0 1-26.8288 15.6672zM803.072 337.2032c-10.496 0-20.736-5.376-26.4704-15.104-8.6528-14.592-3.7888-33.4336 10.8032-42.0864l44.544-26.3168a30.76096 30.76096 0 0 1 42.0864 10.8032c8.6528 14.592 3.7888 33.4336-10.8032 42.0864l-44.544 26.3168c-4.9152 2.9184-10.2912 4.3008-15.616 4.3008zM850.176 499.5584c-16.896 0-30.6176-13.6192-30.72-30.5152-0.1024-16.9472 13.568-30.8224 30.5152-30.9248l51.7632-0.3072h0.2048c16.896 0 30.6176 13.6192 30.72 30.5152 0.1024 16.9472-13.568 30.8224-30.5152 30.9248l-51.7632 0.3072h-0.2048zM851.0976 687.2064c-5.3248 0-10.752-1.3824-15.6672-4.3008l-44.4928-26.4704c-14.592-8.6528-19.3536-27.5456-10.7008-42.0864a30.65344 30.65344 0 0 1 42.0864-10.7008l44.4928 26.4704a30.69952 30.69952 0 1 1-15.7184 57.088z" fill="#FF973D" /><path d="M504.7808 185.2928c-22.5792 0-40.96-18.3808-40.96-40.96V92.5696c0-22.5792 18.3808-40.96 40.96-40.96s40.96 18.3808 40.96 40.96v51.7632c0 22.5792-18.3808 40.96-40.96 40.96z m0-113.2032c-11.3152 0-20.48 9.1648-20.48 20.48v51.7632c0 11.3152 9.1648 20.48 20.48 20.48s20.48-9.1648 20.48-20.48V92.5696c0-11.264-9.1648-20.48-20.48-20.48zM340.9408 225.7408c-14.7968 0-28.5184-7.9872-35.7376-20.8896l-25.344-45.1072a40.77568 40.77568 0 0 1-3.7376-31.1296 40.4992 40.4992 0 0 1 19.4048-24.6272c19.712-11.0592 44.6976-4.0448 55.7568 15.6672l25.344 45.1072c5.376 9.5232 6.656 20.5824 3.7376 31.1296a40.4992 40.4992 0 0 1-19.4048 24.6272 41.3952 41.3952 0 0 1-20.0192 5.2224z m-25.3952-106.5472c-3.3792 0-6.8096 0.8192-9.984 2.6112-4.7616 2.6624-8.192 7.0656-9.6768 12.3392a20.3776 20.3776 0 0 0 1.8432 15.5648l25.344 45.1072a20.55168 20.55168 0 0 0 17.8688 10.4448c3.4816 0 6.9632-0.9216 9.984-2.6112 4.7616-2.6624 8.192-7.0656 9.6768-12.3392a20.3776 20.3776 0 0 0-1.8432-15.5648l-25.344-45.1072a20.39296 20.39296 0 0 0-17.8688-10.4448zM225.8944 347.4432a40.8064 40.8064 0 0 1-20.7872-5.6832l-44.544-26.3168a40.64256 40.64256 0 0 1-18.8416-25.0368c-2.7136-10.5984-1.1776-21.6064 4.4032-31.0272a40.64256 40.64256 0 0 1 25.0368-18.8416c10.5984-2.7136 21.6064-1.1776 31.0272 4.4032l44.544 26.3168a40.64256 40.64256 0 0 1 18.8416 25.0368c2.7136 10.5984 1.1776 21.6064-4.4032 31.0272a41.15456 41.15456 0 0 1-35.2768 20.1216z m-44.4928-87.7568c-1.6896 0-3.4304 0.2048-5.12 0.6656-5.3248 1.3824-9.728 4.7104-12.544 9.4208-2.7648 4.7104-3.584 10.24-2.2016 15.5136 1.3824 5.2736 4.7104 9.728 9.4208 12.544l44.544 26.3168c3.1744 1.8432 6.7584 2.8672 10.3936 2.8672 7.2192 0 13.9776-3.84 17.664-10.0864 2.7648-4.7104 3.584-10.24 2.2016-15.5136-1.3824-5.2736-4.7104-9.728-9.4208-12.544l-44.544-26.3168c-3.2256-1.9456-6.7584-2.8672-10.3936-2.8672zM178.7904 509.7984h-0.2048l-51.8144-0.3072c-22.5792-0.1536-40.8576-18.6368-40.704-41.216 0.1536-22.4256 18.5344-40.704 40.96-40.704l52.0192 0.3072c22.5792 0.1536 40.8576 18.6368 40.704 41.216-0.1024 22.4768-18.4832 40.704-40.96 40.704zM127.1808 448.0512a20.47488 20.47488 0 1 0-0.2048 40.96l51.7632 0.3072 0.1536 10.24v-10.24a20.47488 20.47488 0 1 0 0.1024-40.96l-51.8144-0.3072zM177.8688 697.4464c-14.3872 0-27.904-7.68-35.2256-20.0192a41.01632 41.01632 0 0 1 14.2336-56.1664l44.4928-26.4704a40.9088 40.9088 0 0 1 31.0272-4.5056c10.5984 2.7136 19.5072 9.3696 25.088 18.7392a41.01632 41.01632 0 0 1-14.2336 56.1664l-44.4928 26.4704a40.77568 40.77568 0 0 1-20.8896 5.7856z m44.3904-87.9104c-3.6352 0-7.2192 0.9728-10.4448 2.8672l-44.4928 26.4704c-4.7104 2.816-8.0384 7.2704-9.3696 12.544a20.3264 20.3264 0 0 0 2.2528 15.5136 20.4288 20.4288 0 0 0 17.6128 10.0352c3.6352 0 7.2704-0.9728 10.4448-2.8672l44.4928-26.4704c4.7104-2.816 8.0384-7.2704 9.3696-12.544 1.3312-5.3248 0.5632-10.8032-2.2528-15.5136s-7.2704-8.0384-12.544-9.3696a19.1488 19.1488 0 0 0-5.0688-0.6656z" fill="#010101" /><path d="M667.5456 225.7408c-6.9632 0-13.9264-1.792-20.0192-5.2736a40.96 40.96 0 0 1-19.4048-24.6272 40.5504 40.5504 0 0 1 3.7376-31.1296l25.344-45.1072c11.0592-19.712 36.096-26.7264 55.7568-15.6672a40.96 40.96 0 0 1 19.4048 24.6272 40.5504 40.5504 0 0 1-3.7376 31.1296L703.2832 204.8a41.088 41.088 0 0 1-35.7376 20.9408z m25.3952-106.5472c-7.168 0-14.1312 3.7888-17.92 10.4448l-25.344 45.1072a20.3776 20.3776 0 0 0-1.8432 15.5648c1.4848 5.2736 4.9152 9.6256 9.6768 12.3392 3.072 1.7408 6.5024 2.6112 9.984 2.6112 7.424 0 14.2848-3.9936 17.8688-10.4448l25.344-45.1072c2.6624-4.7616 3.328-10.2912 1.8432-15.5648a20.49024 20.49024 0 0 0-9.6768-12.3392c-3.1232-1.792-6.5536-2.6112-9.9328-2.6112z" fill="#010101" /><path d="M782.592 347.4432c-14.4384 0-27.9552-7.7312-35.2768-20.1216a41.0368 41.0368 0 0 1 14.4384-56.1152l44.544-26.3168c19.456-11.4688 44.6464-5.0176 56.1152 14.4384s5.0176 44.5952-14.4384 56.1152l-44.544 26.3168a41.64608 41.64608 0 0 1-20.8384 5.6832z m44.4928-87.7568c-3.5328 0-7.1168 0.9216-10.3936 2.8672l-44.544 26.3168a20.51584 20.51584 0 0 0-7.2192 28.0576 20.67456 20.67456 0 0 0 17.664 10.0864c3.6352 0 7.2192-0.9728 10.3936-2.8672l44.544-26.3168a20.51584 20.51584 0 0 0 7.2192-28.0576 20.44928 20.44928 0 0 0-17.664-10.0864z" fill="#010101" /><path d="M829.696 509.7984c-22.4256 0-40.8064-18.2784-40.96-40.704-0.1536-22.5792 18.1248-41.0624 40.704-41.216l51.7632-0.3072c22.6816 0 41.0624 18.2784 41.216 40.704 0.1536 22.5792-18.1248 41.0624-40.704 41.216l-51.7632 0.3072h-0.256z m51.712-61.7472l-51.8656 0.3072a20.5056 20.5056 0 0 0-20.3776 20.5824 20.55168 20.55168 0 0 0 20.48 20.3776h0.2048l51.6608-0.3072a20.5056 20.5056 0 0 0 20.3776-20.5824 20.52096 20.52096 0 0 0-20.48-20.3776z" fill="#010101" /><path d="M830.6176 697.4464c-7.3216 0-14.592-1.9968-20.8896-5.7856l-44.4928-26.4704a40.37632 40.37632 0 0 1-18.7392-25.1392c-2.7136-10.5984-1.0752-21.6064 4.5056-31.0272a40.66816 40.66816 0 0 1 25.088-18.7904 40.9088 40.9088 0 0 1 31.0272 4.5056l44.4416 26.4704c19.4048 11.5712 25.8048 36.7104 14.2848 56.1152a41.02144 41.02144 0 0 1-35.2256 20.1216z m-44.3904-87.9104c-1.6896 0-3.3792 0.2048-5.0688 0.6144a20.0704 20.0704 0 0 0-12.544 9.3696c-2.816 4.7104-3.584 10.24-2.2528 15.5136a20.0704 20.0704 0 0 0 9.3696 12.544l44.4928 26.4704c3.1744 1.8944 6.8096 2.8672 10.4448 2.8672 7.3216 0 13.8752-3.7376 17.6128-10.0352 2.816-4.7104 3.584-10.1888 2.2528-15.5136a20.0704 20.0704 0 0 0-9.3696-12.544l-44.4928-26.4704c-3.2256-1.8432-6.8096-2.816-10.4448-2.816z" fill="#010101" /><path d="M547.584 729.0368c-5.632 0-10.24-4.608-10.24-10.24V511.8976H470.9376v206.9504c0 5.632-4.608 10.24-10.24 10.24s-10.24-4.608-10.24-10.24V511.8976h-33.024c-15.0016 0-28.0064-9.1136-33.1264-23.2448s-0.9216-29.44 10.5984-39.0656l18.2784-15.2064a35.00032 35.00032 0 0 1 37.4784-4.8128c12.4928 5.888 20.2752 18.0736 20.2752 31.8976v29.952h66.4576v-29.7472c0-13.824 7.7824-26.0608 20.3264-31.8976 12.544-5.8368 26.88-3.9936 37.5296 4.9152l17.9712 15.0016c11.52 9.6256 15.616 24.9344 10.496 39.0656-5.12 14.08-18.1248 23.1936-33.1264 23.1936h-32.7168v206.9504c-0.0512 5.5808-4.608 10.1376-10.2912 10.1376z m10.24-237.6192h32.7168c9.5744 0 13.056-7.424 13.8752-9.728 0.8192-2.304 2.9696-10.1888-4.4032-16.3328l-17.9712-15.0016c-4.5056-3.7888-10.3936-4.5568-15.7184-2.048s-8.4992 7.4752-8.4992 13.3632v29.7472z m-122.2144-44.8a14.336 14.336 0 0 0-9.3184 3.4816l-18.2784 15.2064c-7.3728 6.144-5.2736 14.08-4.4544 16.3328 0.8192 2.304 4.2496 9.728 13.8752 9.728h33.024v-29.952c0-5.888-3.1744-10.8544-8.4992-13.3632a15.872 15.872 0 0 0-6.3488-1.4336z" fill="#010101" /><path d="M339.2 449.4336c-0.6144 0-1.2288-0.0512-1.8944-0.1536-5.5808-1.024-9.216-6.3488-8.192-11.9296a256.8704 256.8704 0 0 1 9.9328-37.6832 10.30144 10.30144 0 0 1 13.056-6.2976c5.3248 1.8944 8.1408 7.7312 6.2976 13.056a236.6976 236.6976 0 0 0-9.1136 34.6624c-0.9216 4.9152-5.2224 8.3456-10.0864 8.3456z" fill="#FFFFFF" /><path d="M364.4928 378.6752c-1.7408 0-3.4816-0.4608-5.12-1.3824a10.22464 10.22464 0 0 1-3.7376-13.9776C407.552 273.5104 503.1424 266.496 507.1872 266.24c5.6832-0.3584 10.496 3.9424 10.8544 9.5744s-3.9424 10.496-9.5744 10.8544c-0.9728 0.0512-88.8832 6.8608-135.168 86.8864-1.8432 3.2768-5.2736 5.12-8.8064 5.12z" fill="#FFFFFF" /><path d="M437.4528 900.1984c-5.632 0-10.24-4.608-10.24-10.24v-108.8c0-5.632 4.608-10.24 10.24-10.24s10.24 4.608 10.24 10.24v108.8c0 5.6832-4.5568 10.24-10.24 10.24z" fill="#FFFFFF" /></svg>