<?xml version="1.0" standalone="no"?><!DOCTYPE svg PUBLIC "-//W3C//DTD SVG 1.1//EN" "http://www.w3.org/Graphics/SVG/1.1/DTD/svg11.dtd"><svg class="icon" width="200px" height="200.00px" viewBox="0 0 1024 1024" version="1.1" xmlns="http://www.w3.org/2000/svg"><path d="M744.8064 896.8704H280.1152c-81.2032 0-147.0464-65.8432-147.0464-147.0464V349.2352c0-81.2032 65.8432-147.0464 147.0464-147.0464h464.7424c81.2032 0 147.0464 65.8432 147.0464 147.0464v400.5376c0 81.2544-65.8432 147.0976-147.0976 147.0976z" fill="#FF6464" /><path d="M744.8064 202.1888h-91.8528c81.2032 0 147.0464 65.8432 147.0464 147.0464v400.5376c0 81.2032-65.8432 147.0464-147.0464 147.0464h91.8528c81.2032 0 147.0464-65.8432 147.0464-147.0464V349.2352c0.0512-81.2032-65.792-147.0464-147.0464-147.0464z" fill="#FF4436" /><path d="M744.8064 912.2304H280.1152c-89.5488 0-162.4064-72.8576-162.4064-162.4064V349.2352c0-89.5488 72.8576-162.4064 162.4064-162.4064h464.7424c89.5488 0 162.4064 72.8576 162.4064 162.4064v400.5376c0 89.6-72.9088 162.4576-162.4576 162.4576zM280.1152 217.5488c-72.6016 0-131.6864 59.0848-131.6864 131.6864v400.5376c0 72.6016 59.0848 131.6864 131.6864 131.6864h464.7424c72.6016 0 131.6864-59.0848 131.6864-131.6864V349.2352c0-72.6016-59.0848-131.6864-131.6864-131.6864H280.1152z" fill="#333333" /><path d="M709.5296 412.9792H313.4464c-8.4992 0-15.36-6.8608-15.36-15.36s6.8608-15.36 15.36-15.36h396.0832c8.4992 0 15.36 6.8608 15.36 15.36s-6.8608 15.36-15.36 15.36z" fill="#333333" /><path d="M376.1664 309.7088c-28.8768 0-52.2752-23.3984-52.2752-52.2752V169.1648c0-28.8768 23.3984-52.2752 52.2752-52.2752 28.8768 0 52.2752 23.3984 52.2752 52.2752v88.2176c0.0512 28.928-23.3984 52.3264-52.2752 52.3264z" fill="#F1D000" /><path d="M376.1664 116.8896c-7.8336 0-15.2064 1.792-21.9136 4.864 17.92 8.2944 30.4128 26.368 30.4128 47.4624v88.2176c0 21.0432-12.4416 39.168-30.4128 47.4624 6.656 3.072 14.08 4.864 21.9136 4.864 28.8768 0 52.2752-23.3984 52.2752-52.2752V169.1648c0.0512-28.8768-23.3984-52.2752-52.2752-52.2752z" fill="#F2B200" /><path d="M637.6448 309.7088c-28.8768 0-52.2752-23.3984-52.2752-52.2752V169.1648c0-28.8768 23.3984-52.2752 52.2752-52.2752 28.8768 0 52.2752 23.3984 52.2752 52.2752v88.2176c0 28.928-23.3984 52.3264-52.2752 52.3264z" fill="#F1D000" /><path d="M637.7984 116.8896c-7.8336 0-15.2064 1.792-21.9136 4.864 17.92 8.2944 30.4128 26.368 30.4128 47.4624v88.2176c0 21.0432-12.4416 39.168-30.4128 47.4624 6.656 3.072 14.08 4.864 21.9136 4.864 28.8768 0 52.2752-23.3984 52.2752-52.2752V169.1648c0-28.8768-23.3984-52.2752-52.2752-52.2752z" fill="#F2B200" /><path d="M376.1664 325.0688c-37.3248 0-67.6352-30.3616-67.6352-67.6352V169.1648c0-37.3248 30.3616-67.6352 67.6352-67.6352s67.6352 30.3616 67.6352 67.6352v88.2176c0 37.3248-30.3104 67.6864-67.6352 67.6864z m0-192.8192c-20.3776 0-36.9152 16.5888-36.9152 36.9152v88.2176c0 20.3776 16.5888 36.9152 36.9152 36.9152 20.3776 0 36.9152-16.5888 36.9152-36.9152V169.1648c0-20.3264-16.5376-36.9152-36.9152-36.9152zM637.6448 325.0688c-37.3248 0-67.6352-30.3616-67.6352-67.6352V169.1648c0-37.3248 30.3616-67.6352 67.6352-67.6352 37.3248 0 67.6352 30.3616 67.6352 67.6352v88.2176c0 37.3248-30.3616 67.6864-67.6352 67.6864z m0-192.8192c-20.3776 0-36.9152 16.5888-36.9152 36.9152v88.2176c0 20.3776 16.5888 36.9152 36.9152 36.9152 20.3776 0 36.9152-16.5888 36.9152-36.9152V169.1648c0-20.3264-16.5888-36.9152-36.9152-36.9152z" fill="#333333" /><path d="M420.608 725.4528c-8.4992 0-15.36-6.8608-15.36-15.36v-182.784l-50.0224 23.5008c-7.68 3.584-16.8448 0.3072-20.4288-7.3728s-0.3072-16.8448 7.3728-20.4288l71.8848-33.792a15.32928 15.32928 0 0 1 21.8624 13.8752v207.0016c0.0512 8.4992-6.8096 15.36-15.3088 15.36zM605.184 719.9232c-28.0576 0-63.7952-10.3424-78.0288-58.4192l-0.3072-1.1264a15.36 15.36 0 0 1 10.1376-19.2c8.1408-2.5088 16.6912 2.048 19.2 10.1376l0.4096 1.4336c4.608 15.6672 14.6944 36.4032 48.5376 36.4032h0.256c24.7296-3.072 40.3456-14.0288 46.4896-32.6144 6.8096-20.5824-0.256-45.3632-11.1104-55.552-30.4128-27.136-59.5456 0.8192-62.7712 4.096-2.8672 2.9696-6.912 4.6592-11.008 4.6592h-20.9408c-4.352 0-8.4992-1.8432-11.4176-5.0688-2.9184-3.2256-4.3008-7.5264-3.84-11.8784l9.8304-94.1056a15.36 15.36 0 0 1 15.2576-13.7728h109.824c8.4992 0 15.36 6.8608 15.36 15.36s-6.8608 15.36-15.36 15.36h-95.9488l-6.4 61.3888c20.992-16.8448 60.4672-32.3072 98.2016 1.3312 21.248 19.968 29.5424 57.6512 19.5584 87.8592-5.7856 17.5104-22.9888 47.7696-72.9088 53.5552-0.512 0.0512-1.0752 0.1024-1.5872 0.1024-0.4608 0.0512-0.9216 0.0512-1.4336 0.0512z" fill="#FFFFFF" /><path d="M567.3472 820.0704H307.5584c-8.4992 0-15.36-6.8608-15.36-15.36s6.8608-15.36 15.36-15.36h259.84c8.4992 0 15.36 6.8608 15.36 15.36s-6.912 15.36-15.4112 15.36zM714.4448 820.0704h-58.8288c-8.4992 0-15.36-6.8608-15.36-15.36s6.8608-15.36 15.36-15.36h58.8288c8.4992 0 15.36 6.8608 15.36 15.36s-6.912 15.36-15.36 15.36z" fill="#333333" /></svg>