<?xml version="1.0" standalone="no"?><!DOCTYPE svg PUBLIC "-//W3C//DTD SVG 1.1//EN" "http://www.w3.org/Graphics/SVG/1.1/DTD/svg11.dtd"><svg class="icon" width="200px" height="200.00px" viewBox="0 0 1024 1024" version="1.1" xmlns="http://www.w3.org/2000/svg"><path d="M801.2288 344.1664C776.448 209.5616 658.5344 107.52 516.7104 107.52S257.024 209.5616 232.192 344.1664c-94.5664 15.5136-166.7584 97.5872-166.7584 196.5568 0 110.0288 89.1904 199.2192 199.2192 199.2192h504.0128c110.0288 0 199.2192-89.1904 199.2192-199.2192 0.0512-98.9184-72.0896-180.992-166.656-196.5568z" fill="#C4023A" /><path d="M781.4656 372.8896c-22.9888-124.8768-132.352-219.4944-263.8848-219.4944S276.6848 248.0128 253.696 372.8896c-87.7056 14.3872-154.6752 90.5216-154.6752 182.3232 0 102.0416 82.7392 184.7808 184.7808 184.7808h467.5072c102.0416 0 184.7808-82.7392 184.7808-184.7808 0-91.8016-66.9184-167.936-154.624-182.3232z" fill="#E51F4E" /><path d="M757.3504 421.6832h-21.5552c-5.7344-115.5584-101.2736-207.5136-218.2656-207.5136s-212.48 91.9552-218.2144 207.5136h-21.5552c-71.5264 0-129.4848 57.9584-129.4848 129.4848 0 71.5264 57.9584 129.4848 129.4848 129.4848h479.5904c71.5264 0 129.4848-57.9584 129.4848-129.4848 0-71.5264-57.9584-129.4848-129.4848-129.4848z" fill="#C4023A" /><path d="M739.6864 440.7808h-19.968c-5.3248-107.0592-93.7984-192.2048-202.1376-192.2048S320.7168 333.7216 315.4432 440.7808h-19.968c-66.2528 0-119.9104 53.7088-119.9104 119.9104 0 66.2528 53.7088 119.9104 119.9104 119.9104h444.2112c66.2528 0 119.9104-53.7088 119.9104-119.9104 0-66.2016-53.6576-119.9104-119.9104-119.9104z" fill="#F5536C" /><path d="M442.8288 595.0976v281.9584h149.504v-281.9584l112.9472 36.864v-29.8496l-187.6992-161.3824-187.7504 161.3824v29.8496z" fill="#FF9100" /><path d="M442.8288 631.8592v281.9072h149.504v-281.9072h112.9472l-187.6992-154.368-187.7504 154.368z" fill="#F6E937" /></svg>