<?xml version="1.0" standalone="no"?><!DOCTYPE svg PUBLIC "-//W3C//DTD SVG 1.1//EN" "http://www.w3.org/Graphics/SVG/1.1/DTD/svg11.dtd"><svg class="icon" width="200px" height="200.00px" viewBox="0 0 1024 1024" version="1.1" xmlns="http://www.w3.org/2000/svg"><path d="M483.0208 483.5328m-375.6544 0a375.6544 375.6544 0 1 0 751.3088 0 375.6544 375.6544 0 1 0-751.3088 0Z" fill="#7F9AFF" /><path d="M555.264 852.224c172.9024-33.6896 303.4112-185.9072 303.4112-368.64 0-191.3856-143.1552-349.2352-328.2432-372.5824 35.0208 15.0016 247.0912 116.736 257.4336 380.2112 1.792 88.9344-56.6784 271.6672-232.6016 361.0112z" fill="#5078FF" /><path d="M150.3232 561.8688a12.8 12.8 0 0 1-12.544-10.2912c-4.4544-22.528-6.7584-45.7216-6.7584-68.9152 0-122.2144 61.8496-234.0352 165.4784-299.1104 5.9904-3.7376 13.8752-1.9456 17.664 4.0448 3.7376 5.9904 1.9456 13.8752-4.0448 17.664C214.0672 265.5232 156.672 369.2544 156.672 482.6112c0 21.5552 2.0992 43.0592 6.2464 63.9488 1.3824 6.912-3.1232 13.6704-10.0864 15.0528-0.8192 0.1536-1.6384 0.256-2.5088 0.256zM376.32 172.6464c-5.376 0-10.3424-3.3792-12.1344-8.7552-2.2528-6.7072 1.3824-13.9776 8.0896-16.1792 11.1616-3.7376 22.6304-6.912 34.0992-9.472 6.912-1.536 13.7216 2.7648 15.3088 9.6768 1.536 6.912-2.7648 13.7216-9.6768 15.3088a320.8192 320.8192 0 0 0-31.5904 8.8064c-1.3824 0.3584-2.7648 0.6144-4.096 0.6144z" fill="#FFFFFF" /><path d="M280.2688 504.0128c-11.3152 0-20.48-9.1648-20.48-20.48 0-123.0848 100.1472-223.232 223.232-223.232 11.3152 0 20.48 9.1648 20.48 20.48s-9.1648 20.48-20.48 20.48c-100.5056 0-182.272 81.7664-182.272 182.272 0 11.3152-9.1648 20.48-20.48 20.48z" fill="#211D38" /><path d="M920.832 882.944l-140.7488-137.728c61.5936-69.8368 99.072-161.4336 99.072-261.6832 0-218.4192-177.7152-396.1344-396.1344-396.1344S86.8352 265.1136 86.8352 483.5328s177.7152 396.1344 396.1344 396.1344c103.5264 0 197.8368-39.936 268.4928-105.1648l140.6976 137.6768a20.48 20.48 0 0 0 14.336 5.8368c5.3248 0 10.6496-2.048 14.6432-6.144a20.41344 20.41344 0 0 0-0.3072-28.928zM127.7952 483.5328c0-195.84 159.3344-355.1744 355.1744-355.1744s355.1744 159.3344 355.1744 355.1744-159.3344 355.1744-355.1744 355.1744c-195.7888 0.0512-355.1744-159.3344-355.1744-355.1744z" fill="#211D38" /><path d="M917.4528 722.688m-36.1984 0a36.1984 36.1984 0 1 0 72.3968 0 36.1984 36.1984 0 1 0-72.3968 0Z" fill="#F9C47B" /><path d="M262.8608 911.1552c-2.2528 0-4.5056-0.4608-6.7072-1.4336-69.6832-30.5152-100.864-72.7552-102.144-74.5472a16.72704 16.72704 0 0 1 3.7376-23.3984c7.4752-5.4272 17.92-3.7888 23.3472 3.6864 0.512 0.6656 28.0064 37.0688 88.5248 63.5904 8.448 3.6864 12.3392 13.568 8.6016 22.0672a16.75776 16.75776 0 0 1-15.36 10.0352z" fill="#E2E5F1" /><path d="M444.0064 718.8992c-25.5488 0-46.336-20.7872-46.336-46.336 0-25.5488 20.7872-46.336 46.336-46.336 25.5488 0 46.336 20.7872 46.336 46.336 0.0512 25.5488-20.7872 46.336-46.336 46.336z m0-64.9216c-10.24 0-18.5344 8.3456-18.5344 18.5344s8.3456 18.5344 18.5344 18.5344c10.24 0 18.5344-8.3456 18.5344-18.5344s-8.2944-18.5344-18.5344-18.5344zM697.856 587.7248c-24.9344 0-45.2096-20.2752-45.2096-45.2096s20.2752-45.2096 45.2096-45.2096 45.2096 20.2752 45.2096 45.2096-20.2752 45.2096-45.2096 45.2096z m0-63.3344c-9.984 0-18.1248 8.1408-18.1248 18.1248s8.1408 18.1248 18.1248 18.1248 18.1248-8.1408 18.1248-18.1248-8.1408-18.1248-18.1248-18.1248zM377.856 544.768c-25.856 0-46.9504-21.0432-46.9504-46.9504 0-25.856 21.0432-46.9504 46.9504-46.9504s46.9504 21.0432 46.9504 46.9504-21.0944 46.9504-46.9504 46.9504z m0-65.7408c-10.3424 0-18.7904 8.448-18.7904 18.7904s8.448 18.7904 18.7904 18.7904 18.7904-8.448 18.7904-18.7904-8.448-18.7904-18.7904-18.7904z" fill="#97B5FF" /></svg>