<?xml version="1.0" standalone="no"?><!DOCTYPE svg PUBLIC "-//W3C//DTD SVG 1.1//EN" "http://www.w3.org/Graphics/SVG/1.1/DTD/svg11.dtd"><svg class="icon" width="200px" height="200.00px" viewBox="0 0 1024 1024" version="1.1" xmlns="http://www.w3.org/2000/svg"><path d="M768.512 176.384h-75.776c-3.1744 43.6736-39.5264 78.1312-84.0192 78.1312H432.5376c-44.4928 0-80.8448-34.4576-84.0192-78.1312h-75.776c-65.4336 0-118.4768 53.0432-118.4768 118.4768v503.04c0 65.4336 53.0432 118.4768 118.4768 118.4768h495.8208c65.4336 0 118.4768-53.0432 118.4768-118.4768V294.8608c-0.0512-65.4336-53.0944-118.4768-118.528-118.4768z" fill="#FF5F5F" /><path d="M768.512 161.024h-60.6208c-4.6592-50.6368-47.36-90.4704-99.1744-90.4704H432.5376c-51.8656 0-94.5152 39.8336-99.2256 90.4704H272.6912c-73.7792 0-133.8368 60.0576-133.8368 133.8368v503.04c0 73.7792 60.0576 133.8368 133.8368 133.8368h495.8208c73.7792 0 133.8368-60.0576 133.8368-133.8368V294.8608c0-73.8304-60.0064-133.8368-133.8368-133.8368zM432.5376 101.2736h176.1792c37.9904 0 68.9664 30.9248 68.9664 68.9664 0 1.6384-0.1536 3.2768-0.256 4.9152v0.1024c-1.9456 26.8288-19.3536 49.3056-43.1104 58.9312l-0.4608 0.1536c-1.792 0.7168-3.6352 1.3824-5.5296 1.9456-0.4608 0.1536-0.8704 0.2048-1.3312 0.3584-1.6384 0.4608-3.2768 0.8704-4.9152 1.2288-0.9216 0.1536-1.8432 0.256-2.7648 0.4096-1.28 0.2048-2.5088 0.4096-3.7888 0.5632-2.2528 0.2048-4.5056 0.3584-6.8096 0.3584H432.5376c-2.304 0-4.5568-0.1024-6.8096-0.3584-1.28-0.1024-2.5088-0.3584-3.7888-0.5632-0.9216-0.1536-1.8432-0.256-2.7648-0.4096-1.6896-0.3584-3.328-0.768-4.9664-1.2288-0.4608-0.1024-0.8704-0.2048-1.3312-0.3584-1.8944-0.5632-3.7376-1.2288-5.5296-1.9456l-0.4608-0.1536c-23.7056-9.5744-41.1648-32.0512-43.0592-58.9312 0-0.0512 0-0.1024-0.0512-0.1536-0.1024-1.6384-0.256-3.2256-0.256-4.864 0.0512-38.0416 30.976-68.9664 69.0176-68.9664z m439.0912 696.6272c0 56.8832-46.2336 103.1168-103.1168 103.1168H272.6912c-56.832 0-103.1168-46.2336-103.1168-103.1168V294.8608c0-56.8832 46.2336-103.1168 103.1168-103.1168h62.5664c6.7584 30.464 27.4432 55.6544 54.9888 68.608a120.61696 120.61696 0 0 0 7.168 3.0208c0.9216 0.3584 1.792 0.6656 2.7136 0.9728 1.7408 0.6144 3.5328 1.1776 5.3248 1.6896 1.28 0.3584 2.6112 0.6656 3.8912 1.024 1.536 0.3584 3.1232 0.768 4.7104 1.024 1.7408 0.3584 3.5328 0.5632 5.3248 0.8192 1.2288 0.1536 2.4576 0.3584 3.7376 0.512 3.1232 0.3072 6.2464 0.4608 9.4208 0.4608h176.1792c3.1744 0 6.3488-0.2048 9.4208-0.4608 1.28-0.1024 2.4576-0.3072 3.7376-0.512 1.792-0.256 3.584-0.4608 5.3248-0.8192 1.5872-0.3072 3.1232-0.6656 4.7104-1.024 1.28-0.3072 2.6112-0.6144 3.8912-1.024 1.792-0.512 3.584-1.0752 5.3248-1.6896 0.9216-0.3072 1.792-0.6656 2.6624-0.9728 1.9968-0.768 3.9936-1.5872 5.9904-2.4576 0.4096-0.1536 0.768-0.3584 1.1264-0.5632 27.5968-12.9536 48.3328-38.1952 55.04-68.6592h62.5664c56.8832 0 103.1168 46.2336 103.1168 103.1168v503.0912z" fill="#424242" /><path d="M497.664 694.3232c-13.6192 0-26.8288-5.12-36.9152-14.4384l-122.2656-113.2544a15.37024 15.37024 0 0 1-0.8192-21.7088 15.36512 15.36512 0 0 1 21.7088-0.8192l122.2656 113.2544c4.9152 4.5568 11.3152 6.7584 18.0736 6.1952 6.7072-0.6144 12.6464-3.8912 16.7424-9.2672l177.6128-234.8544a15.34976 15.34976 0 1 1 24.4736 18.5344l-177.6128 234.8544c-9.216 12.1856-23.2448 19.968-38.5024 21.3504-1.5872 0.1024-3.1744 0.1536-4.7616 0.1536z" fill="#FFFFFF" /></svg>