<?xml version="1.0" standalone="no"?><!DOCTYPE svg PUBLIC "-//W3C//DTD SVG 1.1//EN" "http://www.w3.org/Graphics/SVG/1.1/DTD/svg11.dtd"><svg class="icon" width="200px" height="200.00px" viewBox="0 0 1024 1024" version="1.1" xmlns="http://www.w3.org/2000/svg"><path d="M116.9408 401.92v327.4752c0 68.2496 55.3472 123.5968 123.5968 123.5968h544.1536c68.2496 0 123.5968-55.3472 123.5968-123.5968V401.92H116.9408z" fill="#FF5F5F" /><path d="M784.6912 235.2128h-145.8688c-18.3296 0-36.4544-4.7104-52.48-13.568L474.368 159.5904c-20.5824-11.4176-43.8784-17.408-67.3792-17.408H240.5376c-76.6464 0-138.9568 62.3616-138.9568 138.9568v448.256c0 76.6464 62.3616 138.9568 138.9568 138.9568h544.1536c76.6464 0 138.9568-62.3616 138.9568-138.9568V374.2208c0-76.6464-62.3104-139.008-138.9568-139.008zM240.5376 172.9024h166.4512c18.3296 0 36.4544 4.7104 52.48 13.568l111.9232 62.0544c20.5824 11.4176 43.8784 17.408 67.3792 17.408h145.8688c59.6992 0 108.2368 48.5888 108.2368 108.2368v12.3392H132.3008V281.1392c0-59.6992 48.5888-108.2368 108.2368-108.2368zM892.928 729.344c0 59.6992-48.5888 108.2368-108.2368 108.2368H240.5376c-59.6992 0-108.2368-48.5888-108.2368-108.2368V417.28H892.928v312.064z" fill="#424242" /><path d="M764.416 762.112h-200.96c-8.4992 0-15.36-6.8608-15.36-15.36s6.8608-15.36 15.36-15.36h200.96c8.4992 0 15.36 6.8608 15.36 15.36s-6.8608 15.36-15.36 15.36z" fill="#FFFFFF" /></svg>