<?xml version="1.0" standalone="no"?><!DOCTYPE svg PUBLIC "-//W3C//DTD SVG 1.1//EN" "http://www.w3.org/Graphics/SVG/1.1/DTD/svg11.dtd"><svg class="icon" width="200px" height="200.00px" viewBox="0 0 1024 1024" version="1.1" xmlns="http://www.w3.org/2000/svg"><path d="M795.7504 344.1664C770.9696 209.5616 653.056 107.52 511.2832 107.52S251.5456 209.5616 226.7648 344.1664c-94.5664 15.5136-166.7584 97.5872-166.7584 196.5568 0 110.0288 89.1904 199.2192 199.2192 199.2192h504.0128c110.0288 0 199.2192-89.1904 199.2192-199.2192 0.0512-98.9184-72.0896-180.992-166.7072-196.5568z" fill="#C4023A" /><path d="M775.9872 372.8896c-22.9888-124.8768-132.352-219.4944-263.8848-219.4944S271.2576 248.0128 248.2176 372.8896c-87.7056 14.3872-154.6752 90.5216-154.6752 182.3232 0 102.0416 82.7392 184.7808 184.7808 184.7808h467.5072c102.0416 0 184.7808-82.7392 184.7808-184.7808 0.0512-91.8016-66.8672-167.936-154.624-182.3232z" fill="#E51F4E" /><path d="M751.9232 421.6832h-21.5552c-5.7344-115.5584-101.2736-207.5136-218.2656-207.5136S299.6224 306.1248 293.888 421.6832h-21.5552c-71.5264 0-129.4848 57.9584-129.4848 129.4848 0 71.5264 57.9584 129.4848 129.4848 129.4848h479.5904c71.5264 0 129.4848-57.9584 129.4848-129.4848 0-71.5264-57.9584-129.4848-129.4848-129.4848z" fill="#C4023A" /><path d="M734.2592 440.7808h-19.968c-5.3248-107.0592-93.7984-192.2048-202.1376-192.2048S315.2896 333.7216 309.9648 440.7808h-19.968c-66.2528 0-119.9104 53.7088-119.9104 119.9104 0 66.2528 53.7088 119.9104 119.9104 119.9104h444.2112c66.2528 0 119.9104-53.7088 119.9104-119.9104 0.0512-66.2016-53.6576-119.9104-119.8592-119.9104z" fill="#F5536C" /><path d="M586.8544 759.4496V477.4912H437.4016v281.9584H324.4032v29.7984l187.6992 124.5184 187.7504-124.5184v-29.7984z" fill="#FF9100" /><path d="M586.8544 789.248V507.2896H437.4016v281.9584H324.4032l187.6992 154.368 187.7504-154.368z" fill="#F6E937" /></svg>