<?xml version="1.0" standalone="no"?><!DOCTYPE svg PUBLIC "-//W3C//DTD SVG 1.1//EN" "http://www.w3.org/Graphics/SVG/1.1/DTD/svg11.dtd"><svg class="icon" width="200px" height="200.00px" viewBox="0 0 1024 1024" version="1.1" xmlns="http://www.w3.org/2000/svg"><path d="M871.936 252.5696c-1.0752 0-2.1504-0.3584-3.072-1.024-2.2528-1.6896-2.7136-4.9152-1.024-7.168 5.376-7.168 7.7824-12.032 7.7824-12.032a5.12 5.12 0 0 1 6.8608-2.3552c2.56 1.2288 3.584 4.3008 2.3552 6.8096-0.1024 0.2048-2.7648 5.6832-8.8064 13.7216-0.9728 1.3312-2.5088 2.048-4.096 2.048zM764.5184 317.3376c-2.3552 0-4.4544-1.6384-5.0176-3.9936a5.09952 5.09952 0 0 1 3.8912-6.0928c8.9088-1.9456 17.5616-4.4544 25.7536-7.3728 2.6624-0.9216 5.5808 0.4608 6.5536 3.1232s-0.4608 5.5808-3.1232 6.5536c-8.6016 3.072-17.664 5.632-26.9824 7.68-0.3584 0.1024-0.7168 0.1024-1.0752 0.1024z m59.5456-22.8864a5.0688 5.0688 0 0 1-4.4032-2.56 5.10976 5.10976 0 0 1 1.8432-7.0144c7.7312-4.5568 15.104-9.6256 21.8624-15.2064a5.12 5.12 0 0 1 7.2192 0.7168 5.12 5.12 0 0 1-0.7168 7.2192 178.0224 178.0224 0 0 1-23.1936 16.128 4.9152 4.9152 0 0 1-2.6112 0.7168zM712.9088 323.3792c-2.7648 0-5.0688-2.2016-5.12-5.0176a5.10464 5.10464 0 0 1 5.0176-5.2224c5.0688-0.1024 10.1376-0.3584 15.104-0.7168 2.7648-0.1536 5.2736 1.8944 5.4784 4.7104a5.10464 5.10464 0 0 1-4.7104 5.4784c-5.12 0.4096-10.3424 0.6656-15.616 0.768h-0.1536zM862.5664 173.7216l77.6704-30.3104c3.6352-1.4336 7.2704 1.9456 6.1952 5.6832l-18.9952 64.9728c-0.5632 1.9968-2.4064 3.3792-4.5056 3.3792h-21.5552c-2.4576 0-4.5056 1.8944-4.6592 4.352-0.3584 4.864-7.0144 5.9904-8.96 1.536l-9.6768-22.1696a4.98688 4.98688 0 0 0-0.768-1.2288l-16.5888-18.7392a4.736 4.736 0 0 1 1.8432-7.4752zM161.2288 308.7872c-3.6352-16.896-10.9568-29.2352-21.6576-36.7104 5.632-3.3792 10.6496-4.7616 10.8544-4.8128 4.9152-1.28 7.8848-6.2976 6.656-11.2128a9.19552 9.19552 0 0 0-11.2128-6.656c-0.768 0.2048-15.1552 3.9936-26.4704 15.104-15.7696-1.9968-29.5424 3.7376-30.3104 4.0448a9.23648 9.23648 0 0 0 7.2192 16.9984c0.1024-0.0512 5.0176-2.048 11.6224-2.7648-4.0448 12.4928-2.3552 26.7264 5.0176 42.4448 1.5872 3.328 4.9152 5.3248 8.3456 5.3248 1.3312 0 2.6624-0.3072 3.9424-0.8704 4.608-2.1504 6.6048-7.68 4.4544-12.288-5.9392-12.5952-6.9632-23.2448-3.072-31.6416 8.1408 4.352 13.7728 13.4144 16.6912 26.9824a9.23648 9.23648 0 0 0 10.9568 7.0656 9.3184 9.3184 0 0 0 6.9632-11.008z" fill="#E2E5F1" /><path d="M235.6736 85.5552l-1.28 0.0512-0.0512-1.28a16.34816 16.34816 0 0 0-16.9984-15.7696 16.34816 16.34816 0 0 0-15.7696 16.9984l0.0512 1.28h-0.1024l1.024 27.5456c0.1024 2.8672 2.5088 5.12 5.376 5.0176l28.9792-1.0752a16.34816 16.34816 0 0 0 15.7696-16.9984 16.4096 16.4096 0 0 0-16.9984-15.7696z" fill="#CBDCFF" /><path d="M781.6704 902.5024H246.4256c-62.8736 0-113.8176-50.944-113.8176-113.8176V451.6864l284.928-216.2688c56.32-42.752 134.1952-42.8544 190.6176-0.3072l287.3344 216.6272v336.9984c0 62.7712-50.9952 113.7664-113.8176 113.7664z" fill="#FF4E51" /><path d="M781.6192 922.9824H246.3744c-74.0352 0-134.2976-60.2624-134.2976-134.2976V451.6864c0-6.4 2.9696-12.4416 8.0896-16.3328l284.928-216.2688c63.3344-48.0256 151.8592-48.1792 215.3472-0.3584l287.3344 216.6272c5.12 3.8912 8.1408 9.9328 8.1408 16.3328v336.9984c0.0512 74.0352-60.2112 134.2976-134.2976 134.2976zM153.0368 461.8752v326.8096c0 51.456 41.8816 93.3376 93.3376 93.3376h535.2448c51.456 0 93.3376-41.8816 93.3376-93.3376V461.8752L595.7632 251.392c-48.896-36.864-117.1456-36.7616-165.9392 0.256L153.0368 461.8752z" fill="#211D38" /><path d="M791.6544 753.9712H236.3904V212.8896c0-35.8912 29.1328-65.024 65.024-65.024h425.1648c35.8912 0 65.024 29.1328 65.024 65.024v541.0816z" fill="#FFFFFF" /><path d="M791.6544 774.4512H236.3904c-11.3152 0-20.48-9.1648-20.48-20.48V212.8896c0-47.1552 38.3488-85.504 85.504-85.504h425.1648c47.1552 0 85.504 38.3488 85.504 85.504v541.0816c0.0512 11.3152-9.1648 20.48-20.4288 20.48z m-534.784-40.96h514.2528V212.8896c0-24.576-19.968-44.544-44.544-44.544H301.4144c-24.576 0-44.544 19.968-44.544 44.544v520.6016z" fill="#211D38" /><path d="M657.0496 292.8128H370.9952c-11.3152 0-20.48-9.1648-20.48-20.48s9.1648-20.48 20.48-20.48h286.1056a20.47488 20.47488 0 1 1-0.0512 40.96zM657.0496 392.3456H370.9952c-11.3152 0-20.48-9.1648-20.48-20.48s9.1648-20.48 20.48-20.48h286.1056a20.47488 20.47488 0 1 1-0.0512 40.96zM560.9472 491.8784h-189.952c-11.3152 0-20.48-9.1648-20.48-20.48s9.1648-20.48 20.48-20.48h189.952c11.3152 0 20.48 9.1648 20.48 20.48s-9.1648 20.48-20.48 20.48z" fill="#211D38" /><path d="M781.6704 902.5024H246.4256c-62.8736 0-113.8176-50.944-113.8176-113.8176V451.6864l340.3776 242.8416a68.61312 68.61312 0 0 0 79.5648 0.1536l342.9376-242.9952v336.9984c0 62.8224-50.9952 113.8176-113.8176 113.8176z" fill="#FF6C73" /><path d="M829.2352 504.064v273.664c0 30.9248-25.0368 55.9616-55.9616 55.9616H277.6064c-72.3456 0-99.6864-4.5056-131.9424-44.0832 1.1264 46.3872 13.0048 114.7904 159.4368 114.7904h477.184c36.7616 0 125.5424-13.0048 125.5424-124.928v-320l-78.592 44.5952z" fill="#FF4E51" /><path d="M781.6192 922.9824H246.3744c-74.0352 0-134.2976-60.2624-134.2976-134.2976V451.6864c0-7.68 4.3008-14.6944 11.1104-18.2272s15.0016-2.9184 21.248 1.536l340.3776 242.8416a48.31744 48.31744 0 0 0 55.8592 0.1024l342.9376-242.9952c6.2464-4.4032 14.4384-5.0176 21.248-1.4848a20.48 20.48 0 0 1 11.0592 18.176v336.9984c0.0512 74.0864-60.2112 134.3488-134.2976 134.3488zM153.0368 491.4688v297.216c0 51.456 41.8816 93.3376 93.3376 93.3376h535.2448c51.456 0 93.3376-41.8816 93.3376-93.3376V491.3152l-310.6304 220.0576a89.2416 89.2416 0 0 1-103.3216-0.1536L153.0368 491.4688z" fill="#211D38" /><path d="M165.4784 795.2896a12.8 12.8 0 0 1-12.8-12.8v-159.6928a12.8 12.8 0 0 1 25.6 0v159.6928a12.8 12.8 0 0 1-12.8 12.8z" fill="#FFFFFF" /><path d="M165.4784 587.008a12.8 12.8 0 0 1-12.8-12.8v-25.3952a12.8 12.8 0 0 1 25.6 0v25.3952a12.8 12.8 0 0 1-12.8 12.8z" fill="#FFFFFF" /></svg>