<?xml version="1.0" standalone="no"?><!DOCTYPE svg PUBLIC "-//W3C//DTD SVG 1.1//EN" "http://www.w3.org/Graphics/SVG/1.1/DTD/svg11.dtd"><svg class="icon" width="200px" height="200.00px" viewBox="0 0 1024 1024" version="1.1" xmlns="http://www.w3.org/2000/svg"><path d="M506.8288 560.9984m-359.424 0a359.424 359.424 0 1 0 718.848 0 359.424 359.424 0 1 0-718.848 0Z" fill="#74E6CB" /><path d="M866.304 560.4352c0-115.8144-54.8352-218.7776-139.9296-284.5184 43.008 69.9904 67.84 152.3712 67.84 240.5888 0 170.496-92.7232 319.3344-230.4512 398.848 171.4176-27.2896 302.5408-175.7696 302.5408-354.9184z" fill="#44CFC0" /><path d="M806.5536 895.3856c-5.4272 0-10.8032-2.1504-14.848-6.3488a20.46464 20.46464 0 0 1 0.7168-28.928c39.424-37.5808 70.656-81.7152 92.7744-131.2256 4.608-10.3424 16.7424-14.9504 27.0336-10.3424 10.3424 4.608 14.9504 16.7424 10.3424 27.0336-24.32 54.4256-58.624 102.912-101.9392 144.1792a20.1216 20.1216 0 0 1-14.08 5.632z" fill="#E2E5F1" /><path d="M151.9616 822.3232c0.6144-4.096 2.816-7.9872 6.5024-10.5472 7.1168-5.0176 16.9472-3.328 21.9648 3.7888a316.81536 316.81536 0 0 0 89.3952 85.3504c7.3216 4.6592 9.472 14.3872 4.8128 21.76a15.77984 15.77984 0 0 1-21.76 4.8128 349.68576 349.68576 0 0 1-98.2528-93.7472c-2.3552-3.4816-3.2256-7.5776-2.6624-11.4176z" fill="#FAC573" /><path d="M132.096 360.6528c-3.5328 0-7.1168-0.9216-10.3424-2.816a20.51584 20.51584 0 0 1-7.2704-28.0576c30.3104-51.5584 69.9392-96.1024 117.6576-132.352a20.47488 20.47488 0 0 1 28.672 3.9424c6.8096 9.0112 5.0688 21.8624-3.9424 28.672a413.5424 413.5424 0 0 0-107.1104 120.4736 20.3264 20.3264 0 0 1-17.664 10.1376z" fill="#E2E5F1" /><path d="M189.0816 645.888c-5.8368 0-11.0592-3.9936-12.4416-9.8816a337.50016 337.50016 0 0 1-8.8064-76.6464c0-115.2512 58.112-221.0816 155.4432-283.0848 5.9392-3.7888 13.8752-2.048 17.664 3.9424 3.7888 5.9392 2.048 13.8752-3.9424 17.664-89.9072 57.2928-143.616 155.0336-143.616 261.4784 0 23.9104 2.7136 47.7696 8.1408 70.8608 1.5872 6.8608-2.6624 13.7728-9.5744 15.36-0.9216 0.2048-1.8944 0.3072-2.8672 0.3072zM411.5968 260.6592c-5.5296 0-10.5984-3.584-12.288-9.1648-1.9968-6.7584 1.8432-13.8752 8.6528-15.9232a336.28672 336.28672 0 0 1 95.3856-13.7728 12.8 12.8 0 0 1 0 25.6c-30.0032 0-59.648 4.2496-88.1152 12.6976-1.2288 0.3584-2.4576 0.5632-3.6352 0.5632z" fill="#FFFFFF" /><path d="M379.136 599.1936a131.5328 83.5072 0 1 0 263.0656 0 131.5328 83.5072 0 1 0-263.0656 0Z" fill="#FAC573" /><path d="M560.6912 531.2s62.9248 71.9872 0.5632 97.2288c-50.0736 20.2752-111.9744 16.384-173.0048-2.816 53.7088 48.0768 199.0144 89.344 254.4128-17.5104-5.632-45.2608-49.7664-76.9024-81.9712-76.9024z" fill="#EF981A" /><path d="M412.7232 611.4304c-0.3072 0-0.6144 0-0.9216-0.0512a12.8256 12.8256 0 0 1-11.8784-13.6704c2.3552-33.0752 51.8656-61.0304 108.0832-61.0304a12.8 12.8 0 0 1 0 25.6c-46.336 0-81.4592 22.272-82.5344 37.2736a12.83072 12.83072 0 0 1-12.7488 11.8784z" fill="#FFFFFF" /><path d="M836.4544 371.5584a20.45952 20.45952 0 0 0-27.9552-7.5776 20.45952 20.45952 0 0 0-7.5776 27.9552c29.2352 50.944 44.6464 109.1072 44.6464 168.192 0 186.7264-151.9104 338.6368-338.6368 338.6368s-338.6368-151.9104-338.6368-338.6368 151.9104-338.6368 338.6368-338.6368c11.3152 0 20.48-9.1648 20.48-20.48s-9.1648-20.48-20.48-20.48c-209.3056 0-379.5968 170.2912-379.5968 379.5968s170.2912 379.5968 379.5968 379.5968 379.5968-170.2912 379.5968-379.5968a379.07456 379.07456 0 0 0-50.0736-188.5696zM583.1168 127.3344c102.3488 17.8688 195.4304 71.9872 262.1952 152.4224 4.0448 4.864 9.8816 7.424 15.7696 7.424a20.46464 20.46464 0 0 0 15.7184-33.536C803.84 165.6832 702.0544 106.496 590.1312 86.9888a20.49536 20.49536 0 0 0-23.7056 16.64 20.5568 20.5568 0 0 0 16.6912 23.7056z" fill="#211D38" /><path d="M640.8192 196.1472c-11.3152 0-20.48 9.1648-20.48 20.48v309.9648c-27.4432-19.4048-66.1504-31.3344-109.6704-31.3344-85.248 0-152.0128 45.6704-152.0128 103.9872s66.7648 103.936 152.0128 103.936c85.248 0 152.0128-45.6704 152.0128-103.936 0-4.8128-0.512-9.5232-1.3824-14.1824V216.6272c0-11.3152-9.1648-20.48-20.48-20.48z m-130.1504 466.0736c-60.16 0-111.0528-28.8256-111.0528-62.976s50.8416-63.0272 111.0528-63.0272c60.2112 0 111.0528 28.8768 111.0528 63.0272s-50.8416 62.976-111.0528 62.976z" fill="#211D38" /></svg>