<?xml version="1.0" standalone="no"?><!DOCTYPE svg PUBLIC "-//W3C//DTD SVG 1.1//EN" "http://www.w3.org/Graphics/SVG/1.1/DTD/svg11.dtd"><svg class="icon" width="200px" height="200.00px" viewBox="0 0 1024 1024" version="1.1" xmlns="http://www.w3.org/2000/svg"><path d="M163.072 856.7296h72.5504v-201.0112H163.072a38.2464 38.2464 0 0 0-38.2464 38.2464v124.5184c0.0512 21.1456 17.152 38.2464 38.2464 38.2464z" fill="#F2B200" /><path d="M124.8768 693.9648v124.5184a38.2464 38.2464 0 0 0 38.2464 38.2464v-201.0112a38.2464 38.2464 0 0 0-38.2464 38.2464z" fill="#F5D126" /><path d="M864.1024 856.7296H791.552v-201.0112h72.5504a38.2464 38.2464 0 0 1 38.2464 38.2464v124.5184a38.2464 38.2464 0 0 1-38.2464 38.2464z" fill="#F2B200" /><path d="M825.856 856.7296h-72.5504v-201.0112h72.5504a38.2464 38.2464 0 0 1 38.2464 38.2464v124.5184c0 21.1456-17.1008 38.2464-38.2464 38.2464z" fill="#F5D126" /><path d="M235.6224 872.0896H163.072c-29.5424 0-53.6064-24.064-53.6064-53.6064v-124.5184c0-29.5424 24.064-53.6064 53.6064-53.6064h72.5504c8.4992 0 15.36 6.8608 15.36 15.36v200.96c0 8.5504-6.8608 15.4112-15.36 15.4112z m-72.5504-201.0112c-12.5952 0-22.8864 10.24-22.8864 22.8864v124.5184c0 12.5952 10.24 22.8864 22.8864 22.8864h57.1904v-170.24H163.072zM864.1024 872.0896H791.552c-8.4992 0-15.36-6.8608-15.36-15.36v-200.96c0-8.4992 6.8608-15.36 15.36-15.36h72.5504c29.5424 0 53.6064 24.064 53.6064 53.6064v124.5184c0 29.4912-24.064 53.5552-53.6064 53.5552z m-57.1904-30.72h57.1904c12.5952 0 22.8864-10.24 22.8864-22.8864v-124.5184c0-12.5952-10.24-22.8864-22.8864-22.8864H806.912v170.2912z" fill="#333333" /><path d="M758.6304 902.144H270.3872c-37.1712 0-67.328-30.1568-67.328-67.328V346.5728c0-37.1712 30.1568-67.328 67.328-67.328h488.2432c37.1712 0 67.328 30.1568 67.328 67.328v488.2432c0 37.1712-30.1056 67.328-67.328 67.328z" fill="#FF6950" /><path d="M758.6304 279.2448H662.528c37.1712 0 67.328 30.1568 67.328 67.328v488.2432c0 37.1712-30.1568 67.328-67.328 67.328h96.1024c37.1712 0 67.328-30.1568 67.328-67.328V346.5728c0-37.1712-30.1056-67.328-67.328-67.328z" fill="#F4403B" /><path d="M758.6304 917.504H270.3872c-45.568 0-82.688-37.0688-82.688-82.688V346.5728c0-45.6192 37.0688-82.688 82.688-82.688h488.2432c45.6192 0 82.688 37.0688 82.688 82.688v488.2432c0 45.6192-37.0688 82.688-82.688 82.688zM270.3872 294.6048c-28.672 0-51.968 23.296-51.968 51.968v488.2432c0 28.672 23.296 51.968 51.968 51.968h488.2432c28.672 0 51.968-23.296 51.968-51.968V346.5728c0-28.672-23.296-51.968-51.968-51.968H270.3872z" fill="#333333" /><path d="M709.3248 421.7344H319.744c-33.9456 0-61.44-27.4944-61.44-61.44v-111.104c0-33.9456 27.4944-61.44 61.44-61.44h389.5808c33.9456 0 61.44 27.4944 61.44 61.44v111.104c0 33.9456-27.5456 61.44-61.44 61.44z" fill="#F5D126" /><path d="M709.3248 187.7504H631.296c33.9456 0 61.44 27.4944 61.44 61.44v111.104c0 33.9456-27.4944 61.44-61.44 61.44h78.0288c33.9456 0 61.44-27.4944 61.44-61.44v-111.104c0-33.9456-27.5456-61.44-61.44-61.44z" fill="#F2B200" /><path d="M709.3248 437.0944H319.744c-42.3424 0-76.8-34.4576-76.8-76.8v-111.104c0-42.3424 34.4576-76.8 76.8-76.8h389.5296c42.3424 0 76.8 34.4576 76.8 76.8v111.104c0.0512 42.3424-34.4064 76.8-76.7488 76.8z m-389.5808-233.984c-25.3952 0-46.08 20.6848-46.08 46.08v111.104c0 25.3952 20.6848 46.08 46.08 46.08h389.5296c25.3952 0 46.08-20.6848 46.08-46.08v-111.104c0-25.3952-20.6848-46.08-46.08-46.08H319.744z" fill="#333333" /><path d="M551.6288 506.7264H477.44a24.0128 24.0128 0 0 1-24.0128-24.0128V366.6944c0-13.2608 10.752-24.0128 24.0128-24.0128h74.1888c13.2608 0 24.0128 10.752 24.0128 24.0128v116.0192c0 13.2608-10.752 24.0128-24.0128 24.0128z" fill="#7BD3FF" /><path d="M551.6288 342.6816h-50.0224c13.2608 0 24.0128 10.752 24.0128 24.0128v116.0192c0 13.2608-10.752 24.0128-24.0128 24.0128h50.0224c13.2608 0 24.0128-10.752 24.0128-24.0128V366.6944c0-13.2608-10.752-24.0128-24.0128-24.0128z" fill="#25C3F4" /><path d="M551.6288 522.0864H477.44c-21.7088 0-39.3728-17.664-39.3728-39.3728V366.6944c0-21.7088 17.664-39.3728 39.3728-39.3728h74.1888c21.7088 0 39.3728 17.664 39.3728 39.3728v116.0192c0 21.7088-17.664 39.3728-39.3728 39.3728zM477.44 357.9904c-4.7616 0-8.6528 3.8912-8.6528 8.6528v116.0192c0 4.7616 3.8912 8.6528 8.6528 8.6528h74.1888c4.7616 0 8.6528-3.8912 8.6528-8.6528V366.6944c0-4.7616-3.8912-8.6528-8.6528-8.6528H477.44z" fill="#333333" /><path d="M729.9072 902.144H299.1616v-244.1216c0-37.1712 30.1568-67.328 67.328-67.328h296.0896c37.1712 0 67.328 30.1568 67.328 67.328v244.1216z" fill="#5BC7FC" /><path d="M662.5792 590.6944h-75.1616c37.1712 0 67.328 30.1568 67.328 67.328v244.1216h75.1616v-244.1216c0-37.1712-30.1568-67.328-67.328-67.328z" fill="#25C3F4" /><path d="M729.9072 917.504H299.1616c-8.4992 0-15.36-6.8608-15.36-15.36v-244.1216c0-45.568 37.0688-82.688 82.688-82.688h296.0896c45.6192 0 82.688 37.0688 82.688 82.688v244.1216c0 8.4992-6.912 15.36-15.36 15.36z m-415.3856-30.72h400.0256v-228.7616c0-28.672-23.296-51.968-51.968-51.968H366.4896c-28.672 0-51.968 23.296-51.968 51.968v228.7616zM627.0976 203.1104h-219.136c-8.4992 0-15.36-6.8608-15.36-15.36 0-52.0704 42.3936-94.464 94.464-94.464h60.928c52.0704 0 94.464 42.3936 94.464 94.464 0 8.4992-6.8608 15.36-15.36 15.36z m-201.8816-30.72h184.6784c-6.912-27.7504-32-48.384-61.8496-48.384h-60.928c-29.9008 0-55.04 20.6336-61.9008 48.384z" fill="#333333" /><path d="M538.368 683.7248H396.2368c-8.4992 0-15.36-6.8608-15.36-15.36s6.8608-15.36 15.36-15.36h142.1824c8.4992 0 15.36 6.8608 15.36 15.36s-6.912 15.36-15.4112 15.36zM538.368 264.2432H509.952c-8.4992 0-15.36-6.8608-15.36-15.36s6.8608-15.36 15.36-15.36h28.416c8.4992 0 15.36 6.8608 15.36 15.36s-6.8608 15.36-15.36 15.36zM453.4272 264.2432H346.2144c-8.4992 0-15.36-6.8608-15.36-15.36s6.8608-15.36 15.36-15.36h107.2128c8.4992 0 15.36 6.8608 15.36 15.36s-6.912 15.36-15.36 15.36z" fill="#FFFFFF" /></svg>