<?xml version="1.0" standalone="no"?><!DOCTYPE svg PUBLIC "-//W3C//DTD SVG 1.1//EN" "http://www.w3.org/Graphics/SVG/1.1/DTD/svg11.dtd"><svg t="1692630238357" class="icon" viewBox="0 0 1024 1024" version="1.1" xmlns="http://www.w3.org/2000/svg" p-id="6866" xmlns:xlink="http://www.w3.org/1999/xlink" width="200" height="200"><path d="M109.714286 207.238095v204.836572q0 35.352381 24.990476 60.342857 24.990476 24.990476 60.342857 24.990476h205.628952q35.352381 0 60.342858-24.990476 24.990476-24.990476 24.990476-60.342857V207.238095q0-35.352381-24.990476-60.342857-24.990476-24.990476-60.342858-24.990476H195.047619q-35.352381 0-60.342857 24.990476Q109.714286 171.885714 109.714286 207.238095z m59.477333 230.692572Q158.47619 427.227429 158.47619 412.074667V207.238095q0-15.152762 10.715429-25.856Q179.894857 170.666667 195.047619 170.666667h205.628952q15.140571 0 25.856 10.715428 10.715429 10.703238 10.715429 25.856v204.836572q0 15.152762-10.715429 25.856-10.715429 10.715429-25.856 10.715428H195.047619q-15.152762 0-25.856-10.715428z" fill="#000000" p-id="6867"></path><path d="M337.383619 315.294476q0 1.657905-0.158476 3.303619-0.158476 1.657905-0.487619 3.291429-0.329143 1.621333-0.804572 3.218286-0.487619 1.584762-1.121523 3.120761t-1.426286 2.998858q-0.78019 1.462857-1.706667 2.840381-0.926476 1.377524-1.974857 2.669714-1.060571 1.28-2.243048 2.450286-1.170286 1.182476-2.462476 2.230857-1.28 1.048381-2.669714 1.974857-1.377524 0.926476-2.852571 1.706666-1.462857 0.78019-2.998858 1.414096-1.536 0.633905-3.132952 1.121524-1.584762 0.487619-3.230476 0.804571-1.633524 0.329143-3.291429 0.487619-1.645714 0.158476-3.315809 0.158476-1.657905 0-3.31581-0.158476t-3.291428-0.487619q-1.633524-0.316952-3.230477-0.804571-1.584762-0.487619-3.132952-1.121524-1.536-0.633905-2.998857-1.414096t-2.852572-1.706666q-1.389714-0.926476-2.681904-1.974857-1.28-1.048381-2.450286-2.230857-1.182476-1.170286-2.230857-2.450286-1.060571-1.29219-1.987048-2.669714-0.926476-1.377524-1.706666-2.840381-0.792381-1.462857-1.426286-2.998858-0.633905-1.536-1.121524-3.120761t-0.804571-3.218286q-0.329143-1.633524-0.487619-3.291429-0.158476-1.645714-0.158477-3.303619 0-1.670095 0.158477-3.315809 0.158476-1.657905 0.487619-3.291429 0.329143-1.621333 0.804571-3.206095 0.487619-1.584762 1.121524-3.120762t1.426286-2.998857q0.78019-1.462857 1.706666-2.852572 0.926476-1.377524 1.987048-2.657523 1.048381-1.29219 2.230857-2.462477 1.170286-1.170286 2.462476-2.230857 1.28-1.048381 2.669714-1.974857 1.377524-0.914286 2.852572-1.706667 1.462857-0.78019 2.998857-1.414095 1.54819-0.633905 3.132952-1.121524t3.230477-0.804571q1.633524-0.316952 3.291428-0.487619 1.657905-0.158476 3.31581-0.158476 1.670095 0 3.328 0.158476 1.645714 0.170667 3.291428 0.487619 1.621333 0.329143 3.218286 0.804571 1.584762 0.487619 3.132952 1.121524 1.536 0.633905 2.998858 1.414095 1.462857 0.792381 2.852571 1.706667 1.389714 0.926476 2.681905 1.974857 1.28 1.060571 2.450285 2.230857 1.182476 1.170286 2.243048 2.462477 1.048381 1.28 1.974857 2.657523 0.926476 1.377524 1.706667 2.852572 0.792381 1.462857 1.426286 2.998857 0.633905 1.52381 1.121523 3.120762 0.487619 1.584762 0.804572 3.218286 0.329143 1.621333 0.487619 3.279238 0.158476 1.645714 0.158476 3.315809z" fill="#000000" p-id="6868"></path><path d="M109.714286 624.11581V828.952381q0 35.352381 24.990476 60.342857Q159.695238 914.285714 195.047619 914.285714h205.628952q35.352381 0 60.342858-24.990476 24.990476-24.990476 24.990476-60.342857V624.11581q0-35.352381-24.990476-60.342858-24.990476-24.990476-60.342858-24.990476H195.047619q-35.352381 0-60.342857 24.990476Q109.714286 588.763429 109.714286 624.11581z m59.477333 230.692571Q158.47619 844.105143 158.47619 828.952381V624.11581q0-15.152762 10.715429-25.856 10.703238-10.715429 25.856-10.715429h205.628952q15.140571 0 25.856 10.715429 10.715429 10.703238 10.715429 25.856V828.952381q0 15.152762-10.715429 25.856-10.715429 10.715429-25.856 10.715429H195.047619q-15.152762 0-25.856-10.715429z" fill="#000000" p-id="6869"></path><path d="M337.383619 732.16q0 1.670095-0.158476 3.31581-0.158476 1.657905-0.487619 3.291428-0.329143 1.621333-0.804572 3.206095-0.487619 1.584762-1.121523 3.132953-0.633905 1.536-1.426286 2.998857-0.78019 1.462857-1.706667 2.840381-0.926476 1.377524-1.974857 2.669714-1.060571 1.28-2.243048 2.450286-1.170286 1.182476-2.462476 2.230857-1.28 1.048381-2.669714 1.974857-1.377524 0.926476-2.852571 1.706667-1.462857 0.78019-2.998858 1.414095-1.536 0.633905-3.132952 1.121524-1.584762 0.487619-3.230476 0.804571-1.633524 0.329143-3.291429 0.487619-1.645714 0.158476-3.315809 0.158476-1.657905 0-3.31581-0.158476t-3.291428-0.487619q-1.633524-0.329143-3.230477-0.804571-1.584762-0.487619-3.132952-1.121524-1.536-0.633905-2.998857-1.414095t-2.852572-1.706667q-1.389714-0.926476-2.681904-1.974857-1.28-1.048381-2.450286-2.230857-1.182476-1.170286-2.230857-2.450286-1.060571-1.29219-1.987048-2.669714-0.926476-1.377524-1.706666-2.840381-0.792381-1.462857-1.426286-2.998857-0.633905-1.536-1.121524-3.132953-0.487619-1.584762-0.804571-3.206095-0.329143-1.633524-0.487619-3.291428-0.158476-1.645714-0.158477-3.30362 0-1.670095 0.158477-3.315809 0.158476-1.657905 0.487619-3.291429 0.329143-1.621333 0.804571-3.206095 0.487619-1.584762 1.121524-3.120762t1.426286-2.998857q0.78019-1.462857 1.706666-2.852571 0.926476-1.377524 1.987048-2.657524 1.048381-1.29219 2.230857-2.462476 1.170286-1.170286 2.462476-2.230857 1.28-1.048381 2.669714-1.974858 1.377524-0.926476 2.852572-1.706666 1.462857-0.78019 2.998857-1.414096 1.54819-0.633905 3.132952-1.121523t3.230477-0.804572q1.633524-0.316952 3.291428-0.487619 1.657905-0.158476 3.31581-0.158476 1.670095 0 3.328 0.158476 1.645714 0.170667 3.291428 0.487619 1.621333 0.329143 3.218286 0.804572 1.584762 0.487619 3.132952 1.121523 1.536 0.633905 2.998858 1.414096t2.852571 1.706666q1.389714 0.926476 2.681905 1.974858 1.28 1.060571 2.450285 2.230857 1.182476 1.170286 2.243048 2.462476 1.048381 1.28 1.974857 2.657524 0.926476 1.377524 1.706667 2.852571 0.792381 1.462857 1.426286 2.998857 0.633905 1.52381 1.121523 3.120762 0.487619 1.584762 0.804572 3.218286 0.329143 1.621333 0.487619 3.279238 0.158476 1.645714 0.158476 3.315809z" fill="#000000" p-id="6870"></path><path d="M527.60381 207.238095v204.836572q0 35.352381 24.990476 60.342857 24.990476 24.990476 60.342857 24.990476h205.616762q35.352381 0 60.342857-24.990476 24.990476-24.990476 24.990476-60.342857V207.238095q0-35.352381-24.990476-60.342857-24.990476-24.990476-60.342857-24.990476H612.924952q-35.352381 0-60.342857 24.990476-24.990476 24.990476-24.990476 60.342857z m59.465142 230.692572q-10.715429-10.703238-10.715428-25.856V207.238095q0-15.152762 10.727619-25.856 10.703238-10.715429 25.843809-10.715428h205.628953q15.152762 0 25.856 10.715428 10.715429 10.703238 10.715428 25.856v204.836572q0 15.152762-10.715428 25.856-10.703238 10.715429-25.856 10.715428H612.924952q-15.140571 0-25.843809-10.715428z" fill="#000000" p-id="6871"></path><path d="M687.506286 315.294476a33.877333 33.80419 0 1 0 67.754666 0 33.877333 33.80419 0 1 0-67.754666 0Z" fill="#000000" p-id="6872"></path><path d="M788.394667 652.434286l92.867047 152.84419q0.804571 1.340952 1.77981 2.56 0.975238 1.219048 2.108952 2.316191 1.121524 1.084952 2.377143 2.011428 1.255619 0.938667 2.608762 1.706667 1.365333 0.768 2.816 1.340952 1.462857 0.597333 2.962286 0.987429 1.511619 0.402286 3.059809 0.609524 1.560381 0.195048 3.120762 0.195047 1.194667 0 2.389333-0.121904t2.364953-0.353524q1.182476-0.231619 2.31619-0.585143 1.158095-0.341333 2.255238-0.804572 1.109333-0.451048 2.169905-1.024 1.048381-0.560762 2.048-1.219047 0.999619-0.670476 1.926095-1.426286 0.926476-0.768 1.767619-1.609143 0.853333-0.853333 1.609143-1.779809 0.75581-0.926476 1.426286-1.913905 0.670476-0.999619 1.219048-2.060191 0.572952-1.048381 1.03619-2.157714 0.451048-1.097143 0.804572-2.255238 0.341333-1.145905 0.585142-2.31619 0.231619-1.182476 0.341334-2.364953 0.121905-1.194667 0.121904-2.389333 0-3.352381-0.902095-6.582857-0.902095-3.218286-2.645333-6.083048L790.357333 561.773714q-1.243429-2.06019-2.864762-3.827809t-3.559619-3.181715q-1.950476-1.426286-4.120381-2.438095-2.169905-1.01181-4.510476-1.584762-2.328381-0.560762-4.729905-0.670476-2.401524-0.097524-4.766476 0.268191-2.377143 0.365714-4.632381 1.182476-2.255238 0.828952-4.315428 2.072381-2.486857 1.511619-4.559238 3.584-2.072381 2.06019-3.584 4.547047-1.52381 2.499048-2.413715 5.278477-0.889905 2.779429-1.097142 5.692952l-11.434667 159.939048q-0.475429 6.680381-6.363429 9.776761-5.790476 3.047619-11.410285-0.316952-70.741333-42.25219-127.780572-80.786286-0.987429-0.670476-2.048-1.243428-1.048381-0.572952-2.157714-1.036191-1.097143-0.463238-2.243048-0.816762-1.145905-0.365714-2.31619-0.597333-1.170286-0.24381-2.364953-0.365714-1.194667-0.121905-2.389333-0.121905t-2.389333 0.097524q-1.194667 0.121905-2.364953 0.341333-1.182476 0.231619-2.328381 0.572953t-2.255238 0.792381q-1.109333 0.451048-2.169904 1.011809-1.060571 0.560762-2.060191 1.219048-0.999619 0.658286-1.926095 1.414095-0.938667 0.75581-1.77981 1.596952-0.853333 0.853333-1.621333 1.767619-0.768 0.914286-1.438476 1.913905-0.975238 1.438476-1.731048 3.011048-0.768 1.584762-1.29219 3.230476-0.536381 1.670095-0.816762 3.388952-0.292571 1.718857-0.329143 3.474286-0.036571 1.743238 0.170667 3.474286t0.658285 3.413333q0.463238 1.682286 1.145905 3.291429 0.694857 1.596952 1.596952 3.096381 48.469333 79.201524 69.059048 178.066285v0.036572q0.219429 1.024 0.512 2.011428 0.304762 0.999619 0.682667 1.974857 0.390095 0.975238 0.853333 1.901715 0.463238 0.926476 0.999619 1.828571 0.536381 0.877714 1.158095 1.718857 0.609524 0.841143 1.292191 1.621334 0.694857 0.792381 1.438476 1.511619 0.743619 0.731429 1.560381 1.377523 0.804571 0.658286 1.670095 1.243429 0.853333 0.585143 1.767619 1.097143 0.902095 0.512 1.852953 0.938667 0.950857 0.426667 1.926095 0.78019 0.975238 0.353524 1.987047 0.609524 1.01181 0.26819 2.03581 0.438857 1.024 0.182857 2.072381 0.26819 1.024 0.085333 2.072381 0.085334 1.194667 0 2.389333-0.121905 1.182476-0.109714 2.364953-0.341333 1.170286-0.24381 2.31619-0.585143t2.255238-0.804572q1.097143-0.451048 2.157714-1.024 1.060571-0.560762 2.060191-1.219047 0.987429-0.670476 1.913905-1.438476 0.926476-0.75581 1.779809-1.596953 0.853333-0.853333 1.609143-1.779809 0.75581-0.926476 1.426286-1.913905 0.658286-0.999619 1.219047-2.060191 0.572952-1.048381 1.024-2.157714 0.463238-1.097143 0.816762-2.255238 0.341333-1.145905 0.572953-2.31619 0.24381-1.182476 0.353524-2.377143 0.121905-1.182476 0.121904-2.389334 0-2.499048-0.512-4.961523v-0.036572q-12.263619-58.855619-33.743238-111.445333 26.026667 16.237714 54.162286 33.03619 14.09219 8.423619 30.268952 8.594286 15.238095 0.170667 28.854857-6.985143 13.568-7.143619 22.089143-19.760762 9.033143-13.372952 10.203429-29.696l5.973333-83.675428z" fill="#000000" p-id="6873"></path></svg>