<?xml version="1.0" standalone="no"?><!DOCTYPE svg PUBLIC "-//W3C//DTD SVG 1.1//EN" "http://www.w3.org/Graphics/SVG/1.1/DTD/svg11.dtd"><svg class="icon" width="200px" height="200.00px" viewBox="0 0 1024 1024" version="1.1" xmlns="http://www.w3.org/2000/svg"><path d="M496.2304 447.744l-402.432-130.7136v402.2272c0 86.2208 69.888 156.1088 156.1088 156.1088h531.3536c86.2208 0 156.1088-69.888 156.1088-156.1088V314.5728c-0.6144-0.4608-0.6656-0.4608-1.3312-0.9216l-351.2832 132.096a134.272 134.272 0 0 1-88.5248 1.9968z" fill="#FF5F5F" /><path d="M952.6784 311.808v-0.0512-0.3584c-0.0512-2.7648-0.1536-5.5296-0.3584-8.2432v-0.1536c-5.9904-89.1904-80.384-159.8976-171.0592-159.8976H249.9072c-85.7088 0-156.8768 63.1808-169.472 145.408-1.28 8.4992-1.9968 17.2032-1.9968 26.0608V719.2576c0 94.5664 76.9024 171.4688 171.4688 171.4688h531.3536c94.5664 0 171.4688-76.9024 171.4688-171.4688V314.5728c0-0.9216-0.0512-1.8432-0.0512-2.7648z m-171.4176-138.0352c2.3552 0 4.6592 0.0512 6.9632 0.1536 1.28 0.0512 2.5088 0.1536 3.7376 0.256 1.024 0.0512 1.9968 0.1536 3.0208 0.2048 1.792 0.1536 3.5328 0.4096 5.2736 0.6144l1.28 0.1536c63.4368 9.3184 113.8176 61.5936 119.8592 126.1568l-344.0128 125.0816a119.1168 119.1168 0 0 1-76.0832 1.6896l-391.7824-122.88c0.0512-0.8704 0.1024-1.7408 0.2048-2.6112l0.3072-3.328 0.4608-3.6864c0.1536-1.0752 0.256-2.0992 0.4608-3.1744 0.2048-1.28 0.4608-2.5088 0.6656-3.7376 0.2048-1.024 0.3584-1.9968 0.5632-3.0208 0.256-1.28 0.5632-2.56 0.8704-3.84 0.2048-0.9216 0.4096-1.8944 0.6656-2.816 0.3584-1.3312 0.768-2.6624 1.1264-3.9936 0.256-0.8192 0.4608-1.6896 0.7168-2.5088 0.4608-1.4848 0.9728-2.9696 1.4848-4.4032 0.256-0.6656 0.4608-1.3312 0.6656-1.9968 0.7168-1.9456 1.4848-3.8912 2.304-5.8368 0.0512-0.1536 0.1024-0.256 0.1536-0.4096 0.8704-2.0992 1.792-4.1472 2.816-6.144 0.1536-0.3584 0.3584-0.6656 0.512-1.024 0.8192-1.6384 1.6384-3.328 2.5088-4.9152 0.3072-0.6144 0.6656-1.1776 1.024-1.792 0.768-1.3312 1.4848-2.6624 2.304-3.9936 0.4096-0.7168 0.8704-1.3824 1.3312-2.0992 0.768-1.1776 1.4848-2.3552 2.2528-3.5328 0.512-0.768 1.024-1.4848 1.536-2.2016 0.768-1.0752 1.4848-2.1504 2.304-3.2256 0.5632-0.768 1.1264-1.4848 1.6896-2.2016 0.768-1.024 1.5872-2.048 2.4064-3.0208l1.8432-2.1504c0.8192-0.9728 1.6384-1.8944 2.4576-2.8672l1.9968-2.1504c0.8192-0.9216 1.6896-1.792 2.56-2.6624 0.7168-0.7168 1.4336-1.3824 2.0992-2.0992 0.8704-0.8704 1.7408-1.6896 2.6112-2.5088 0.768-0.6656 1.4848-1.3312 2.2528-1.9968 0.9216-0.8192 1.792-1.5872 2.7136-2.3552 0.768-0.6656 1.5872-1.28 2.3552-1.9456 0.9216-0.768 1.8432-1.4848 2.816-2.2016l2.4576-1.8432c0.9728-0.7168 1.9456-1.3824 2.9184-2.048 0.8704-0.5632 1.6896-1.1776 2.56-1.7408 0.9728-0.6656 1.9968-1.28 2.9696-1.8944 0.8704-0.5632 1.792-1.0752 2.6624-1.6384 1.024-0.6144 2.048-1.1776 3.072-1.7408l2.7648-1.536c1.024-0.5632 2.0992-1.0752 3.1232-1.5872 0.9216-0.4608 1.8944-0.9216 2.8672-1.3824 1.0752-0.512 2.1504-0.9728 3.2256-1.4848 0.9728-0.4096 1.9456-0.8704 2.9184-1.2288 1.0752-0.4608 2.2016-0.8704 3.328-1.3312 0.9728-0.3584 1.9456-0.768 2.9696-1.1264 1.1264-0.4096 2.2528-0.768 3.4304-1.1776 1.024-0.3072 1.9968-0.6656 3.0208-0.9728 1.1776-0.3584 2.304-0.6656 3.4816-0.9728 1.024-0.256 2.048-0.5632 3.072-0.8192 1.2288-0.3072 2.4064-0.5632 3.6352-0.8192 1.024-0.2048 1.9968-0.4608 3.0208-0.6656 1.2288-0.256 2.5088-0.4608 3.7888-0.6656 1.024-0.1536 1.9968-0.3584 3.0208-0.512 1.3312-0.2048 2.6624-0.3584 4.0448-0.512 0.9728-0.1024 1.8944-0.256 2.8672-0.3584 1.4848-0.1536 3.0208-0.256 4.5056-0.3584 0.8192-0.0512 1.6384-0.1536 2.5088-0.2048 2.304-0.1024 4.608-0.1536 6.9632-0.1536h531.5072z m0 686.2336H249.9072c-77.6192 0-140.7488-63.1296-140.7488-140.7488v-381.952L492.032 457.5744c14.4896 4.5568 29.5936 6.8096 44.7488 6.8096 17.3568 0 34.7136-2.9696 51.0976-8.96l334.1824-121.4976v385.3312c-0.0512 77.6192-63.1808 140.7488-140.8 140.7488z" fill="#424242" /></svg>