<?xml version="1.0" standalone="no"?><!DOCTYPE svg PUBLIC "-//W3C//DTD SVG 1.1//EN" "http://www.w3.org/Graphics/SVG/1.1/DTD/svg11.dtd"><svg t="1679909793268" class="icon" viewBox="0 0 1024 1024" version="1.1" xmlns="http://www.w3.org/2000/svg" p-id="3934" xmlns:xlink="http://www.w3.org/1999/xlink" width="200" height="200"><path d="M906.24 343.04l-10.24-10.24-23.893333-23.893333-37.546667-37.546667-23.893333-25.6v1.706667l-10.24-10.24-23.893334-25.6-23.893333 23.893333-266.24 266.24-235.52-233.813333-20.48-22.186667-10.24-8.533333-23.893333-23.893334-23.893334 23.893334-71.68 71.68-23.893333 23.893333 23.893333 23.893333 10.24 10.24 23.893334 23.893334 288.426666 290.133333 73.386667 71.68 23.893333 25.6 23.893334-25.6 73.386666-71.68 288.426667-290.133333 23.893333-23.893334z" fill="#28015B" p-id="3935"></path><path d="M124.586667 332.8l71.68-71.68 290.133333 288.426667 290.133333-288.426667 71.68 71.68-361.813333 361.813333z" fill="#FFFFFF" p-id="3936"></path></svg>