<?xml version="1.0" standalone="no"?><!DOCTYPE svg PUBLIC "-//W3C//DTD SVG 1.1//EN" "http://www.w3.org/Graphics/SVG/1.1/DTD/svg11.dtd"><svg t="1692798347159" class="icon" viewBox="0 0 1024 1024" version="1.1" xmlns="http://www.w3.org/2000/svg" p-id="8535" xmlns:xlink="http://www.w3.org/1999/xlink" width="200" height="200"><path d="M512 1024c-281.6 0-512-230.4-512-512s230.4-512 512-512 512 230.4 512 512-230.4 512-512 512zM512 57.6C262.4 57.6 57.6 262.4 57.6 512s204.8 454.4 454.4 454.4 454.4-204.8 454.4-454.4S761.6 57.6 512 57.6z" fill="#707070" p-id="8536"></path><path d="M691.2 742.4c-6.4 0-12.8 0-19.2-6.4l-198.4-192c-12.8-12.8-19.2-25.6-19.2-44.8V268.8c0-19.2 12.8-32 32-32s25.6 19.2 25.6 32v230.4l198.4 192c12.8 12.8 12.8 32 0 38.4-6.4 12.8-12.8 12.8-19.2 12.8z" fill="#D43C3F" p-id="8537"></path></svg>