<?xml version="1.0" standalone="no"?><!DOCTYPE svg PUBLIC "-//W3C//DTD SVG 1.1//EN" "http://www.w3.org/Graphics/SVG/1.1/DTD/svg11.dtd"><svg class="icon" width="200px" height="200.00px" viewBox="0 0 1024 1024" version="1.1" xmlns="http://www.w3.org/2000/svg"><path d="M510.3104 677.2224c0-114.2784 92.672-206.9504 206.9504-206.9504 21.0432 0 41.3696 3.1744 60.5184 9.0112V254.1568c0-71.1168-57.6512-128.7168-128.7168-128.7168H272.128c-71.1168 0-128.7168 57.6512-128.7168 128.7168V757.76c0 71.1168 57.6512 128.7168 128.7168 128.7168h376.9344c12.2368 0 24.1152-1.7408 35.328-4.9664-98.6624-15.7184-174.08-101.1712-174.08-204.288z" fill="#FF5F5F" /><path d="M614.9632 347.7504H310.784c-8.4992 0-15.36-6.8608-15.36-15.36s6.8608-15.36 15.36-15.36h304.1792c8.4992 0 15.36 6.8608 15.36 15.36s-6.8608 15.36-15.36 15.36zM418.2016 578.4576H303.9744c-8.4992 0-15.36-6.8608-15.36-15.36s6.8608-15.36 15.36-15.36h114.2272c8.4992 0 15.36 6.8608 15.36 15.36s-6.8608 15.36-15.36 15.36z" fill="#FFFFFF" /><path d="M793.1392 468.2752V254.1568c0-79.4624-64.6144-144.0768-144.0768-144.0768H272.128c-79.4624 0-144.0768 64.6144-144.0768 144.0768V757.76c0 79.4624 64.6144 144.0768 144.0768 144.0768h376.9344c12.1344 0 24.2688-1.6384 36.0448-4.6592 10.496 1.536 21.1968 2.3552 32.1536 2.3552 122.5728 0 222.3104-99.7376 222.3104-222.3104 0-95.9488-61.0816-177.8688-146.432-208.9472zM272.128 871.1168c-62.5152 0-113.3568-50.8416-113.3568-113.3568V254.1568c0-62.5152 50.8416-113.3568 113.3568-113.3568h376.9344c62.5152 0 113.3568 50.8416 113.3568 113.3568v205.3632c-0.0512 0-0.1024 0-0.1536-0.0512-3.4816-0.7168-6.9632-1.3312-10.496-1.8944-0.2048-0.0512-0.3584-0.0512-0.5632-0.1024-11.0592-1.6896-22.4256-2.6112-33.9968-2.6112-122.5728 0-222.3104 99.7376-222.3104 222.3104 0 4.608 0.2048 9.1136 0.4608 13.6192 0.1024 1.5872 0.256 3.1744 0.3584 4.7616 0.256 2.816 0.512 5.6832 0.8704 8.448 0.256 1.9968 0.4608 3.9936 0.768 5.9392 0.3072 1.9456 0.6144 3.84 0.9728 5.7344 11.4688 66.5088 52.1216 123.1872 109.6704 155.392h-335.872z m445.1328-2.304c-11.4176 0-22.5792-1.0752-33.4336-2.9696-1.8432-0.3072-3.6864-0.6144-5.5296-1.024-77.6192-16.0768-138.1888-79.2576-150.3744-158.2592 0-0.1024-0.0512-0.256-0.0512-0.3584-0.4096-2.7648-0.768-5.5296-1.0752-8.3456l-0.1536-1.536c-0.256-2.5088-0.4096-5.0176-0.5632-7.5776l-0.1536-2.048c-0.1536-3.1232-0.256-6.2976-0.256-9.472 0-105.6256 85.9648-191.5904 191.5904-191.5904 4.2496 0 8.4992 0.2048 12.6976 0.4608 1.0752 0.0512 2.1504 0.1536 3.2256 0.256 3.7888 0.3072 7.5776 0.7168 11.3664 1.28l1.3312 0.1536c4.096 0.6144 8.192 1.4336 12.288 2.304 1.0752 0.256 2.1504 0.512 3.1744 0.7168 3.4304 0.8192 6.8096 1.6896 10.1376 2.7136 79.2576 23.4496 137.3184 96.9216 137.3184 183.7056 0.0512 105.6256-85.9136 191.5904-191.5392 191.5904z" fill="#424242" /><path d="M817.3568 678.2976H721.92v-93.184c0-8.4992-6.8608-15.36-15.36-15.36s-15.36 6.8608-15.36 15.36v108.544c0 8.4992 6.8608 15.36 15.36 15.36h110.7968c8.4992 0 15.36-6.8608 15.36-15.36s-6.8608-15.36-15.36-15.36z" fill="#424242" /></svg>