<?xml version="1.0" standalone="no"?><!DOCTYPE svg PUBLIC "-//W3C//DTD SVG 1.1//EN" "http://www.w3.org/Graphics/SVG/1.1/DTD/svg11.dtd"><svg t="1679814448971" class="icon" viewBox="0 0 1024 1024" version="1.1" xmlns="http://www.w3.org/2000/svg" p-id="10102" xmlns:xlink="http://www.w3.org/1999/xlink" width="200" height="200"><path d="M883 460H141l40-216h662z" fill="#F84A63" p-id="10103"></path><path d="M902.2 476H121.8l45.9-248h688.6l45.9 248z m-742-32h703.5l-34.1-184H194.3l-34.1 184z" fill="#2D2D2D" p-id="10104"></path><path d="M141 480h742v480H141z" fill="#F84A63" p-id="10105"></path><path d="M899 976H125V464h774v512z m-742-32h710V496H157v448z" fill="#2D2D2D" p-id="10106"></path><path d="M141.6 480h112v480h-112z" fill="#FFCB27" p-id="10107"></path><path d="M269.6 976h-144V464h144v512z m-112-32h80V496h-80v448z" fill="#2D2D2D" p-id="10108"></path><path d="M295.455 493.429v450.2h-27.2v-450.2zM754.537 493.447v450.2h-27.2v-450.2z" fill="#ED2B50" p-id="10109"></path><path d="M768.1 480h112v480h-112z" fill="#FFCB27" p-id="10110"></path><path d="M896.1 976h-144V464h144v512z m-112-32h80V496h-80v448z" fill="#2D2D2D" p-id="10111"></path><path d="M902.2 476H121.8l45.9-248h688.6l45.9 248z m-742-32h703.5l-34.1-184H194.3l-34.1 184z" fill="#2D2D2D" p-id="10112"></path><path d="M253.6 266.3l-23 136.7h50.9l21.1-136.7zM370.9 266.3l-23 136.7h51L420 266.3zM477.8 266.3L475.9 403h51V266.3zM749.2 266.3l23 136.7h-51l-21.1-136.7zM631.8 266.3l23 136.7h-51l-21.1-136.7z" fill="#FF9522" p-id="10113"></path><path d="M794.9 189.9H229.1l-72.9-66 25.7 112.3c2 8.7 8.5 14.7 16 14.7H826.3c7.5 0 14-6 16-14.7L868 123.9l-73.1 66z" fill="#FFCB27" p-id="10114"></path><path d="M826.2 266.9H197.8c-14.9 0-27.9-11.2-31.6-27.1l-25.7-112.3c-1.6-6.8 1.5-13.8 7.5-17.4 6-3.5 13.6-2.7 18.8 1.9l68.4 61.9h553.5l68.4-61.9c5.2-4.7 12.8-5.5 18.8-1.9 6 3.5 9.1 10.6 7.5 17.4l-25.7 112.3c-3.5 15.9-16.5 27.1-31.5 27.1z m-627.8-32h627.2c0.3-0.3 0.8-1.1 1-2.3l14.4-62.8-35.3 31.9c-2.9 2.7-6.8 4.1-10.7 4.1H229.1c-4 0-7.8-1.5-10.7-4.1L183 169.8l14.4 62.8c0.3 1.2 0.7 2 1 2.3z" fill="#2D2D2D" p-id="10115"></path><path d="M853.3 418.6H170.7l-88-66 31 112.3c2.4 8.7 10.3 14.7 19.3 14.7h758.1c9 0 16.9-6 19.3-14.7l31-112.3-88.1 66z" fill="#F84A63" p-id="10116"></path><path d="M891.1 495.6H132.9c-16.1 0-30.4-10.9-34.7-26.4l-31-112.3c-1.8-6.6 0.8-13.6 6.4-17.5 5.7-3.9 13.1-3.7 18.6 0.4l83.7 62.8h672l83.7-62.8c5.5-4.1 13-4.3 18.6-0.4 5.7 3.9 8.2 10.9 6.4 17.5l-31 112.3c-4.1 15.5-18.4 26.4-34.5 26.4zM110.6 393.5l18.5 67.2c0.5 1.7 2.1 2.9 3.9 2.9h758.2c1.8 0 3.4-1.2 3.9-2.9l18.5-67.2-50.5 37.9c-2.8 2.1-6.1 3.2-9.6 3.2H170.7c-3.5 0-6.8-1.1-9.6-3.2l-50.5-37.9z" fill="#2D2D2D" p-id="10117"></path><path d="M505.5 753.5h12.9v199h-12.9z" fill="#FFCB27" p-id="10118"></path><path d="M497.1 737.5h29.7v231h-29.7z" fill="#2D2D2D" p-id="10119"></path><path d="M505.5 487.5h12.9v199h-12.9z" fill="#FFCB27" p-id="10120"></path><path d="M497.1 471.5h29.7v231h-29.7z" fill="#2D2D2D" p-id="10121"></path><path d="M512.032 655.293l64.912 64.911-64.912 64.912-64.911-64.912z" fill="#FFCB27" p-id="10122"></path><path d="M512 807.8l-87.5-87.5 87.5-87.5 87.5 87.5-87.5 87.5z m-42.3-87.6l42.3 42.3 42.3-42.3L512 678l-42.3 42.2z" fill="#2D2D2D" p-id="10123"></path><path d="M316.1 546.5m-13.5 0a13.5 13.5 0 1 0 27 0 13.5 13.5 0 1 0-27 0Z" fill="#ED2B50" p-id="10124"></path><path d="M375.3 546.5m-13.5 0a13.5 13.5 0 1 0 27 0 13.5 13.5 0 1 0-27 0Z" fill="#ED2B50" p-id="10125"></path><path d="M434.6 546.5m-13.5 0a13.5 13.5 0 1 0 27 0 13.5 13.5 0 1 0-27 0Z" fill="#ED2B50" p-id="10126"></path><path d="M316.1 634.9m-13.5 0a13.5 13.5 0 1 0 27 0 13.5 13.5 0 1 0-27 0Z" fill="#ED2B50" p-id="10127"></path><path d="M375.3 634.9m-13.5 0a13.5 13.5 0 1 0 27 0 13.5 13.5 0 1 0-27 0Z" fill="#ED2B50" p-id="10128"></path><path d="M434.6 634.9m-13.5 0a13.5 13.5 0 1 0 27 0 13.5 13.5 0 1 0-27 0Z" fill="#ED2B50" p-id="10129"></path><path d="M316.1 811.6m-13.5 0a13.5 13.5 0 1 0 27 0 13.5 13.5 0 1 0-27 0Z" fill="#ED2B50" p-id="10130"></path><path d="M375.3 811.6m-13.5 0a13.5 13.5 0 1 0 27 0 13.5 13.5 0 1 0-27 0Z" fill="#ED2B50" p-id="10131"></path><path d="M434.6 811.6m-13.5 0a13.5 13.5 0 1 0 27 0 13.5 13.5 0 1 0-27 0Z" fill="#ED2B50" p-id="10132"></path><path d="M316.1 900m-13.5 0a13.5 13.5 0 1 0 27 0 13.5 13.5 0 1 0-27 0Z" fill="#ED2B50" p-id="10133"></path><path d="M375.3 900m-13.5 0a13.5 13.5 0 1 0 27 0 13.5 13.5 0 1 0-27 0Z" fill="#ED2B50" p-id="10134"></path><path d="M434.6 900m-13.5 0a13.5 13.5 0 1 0 27 0 13.5 13.5 0 1 0-27 0Z" fill="#ED2B50" p-id="10135"></path><path d="M316.1 723.2m-13.5 0a13.5 13.5 0 1 0 27 0 13.5 13.5 0 1 0-27 0Z" fill="#ED2B50" p-id="10136"></path><path d="M375.3 723.2m-13.5 0a13.5 13.5 0 1 0 27 0 13.5 13.5 0 1 0-27 0Z" fill="#ED2B50" p-id="10137"></path><path d="M589.6 546.5m-13.5 0a13.5 13.5 0 1 0 27 0 13.5 13.5 0 1 0-27 0Z" fill="#ED2B50" p-id="10138"></path><path d="M648.9 546.5m-13.5 0a13.5 13.5 0 1 0 27 0 13.5 13.5 0 1 0-27 0Z" fill="#ED2B50" p-id="10139"></path><path d="M708.1 546.5m-13.5 0a13.5 13.5 0 1 0 27 0 13.5 13.5 0 1 0-27 0Z" fill="#ED2B50" p-id="10140"></path><path d="M589.6 634.9m-13.5 0a13.5 13.5 0 1 0 27 0 13.5 13.5 0 1 0-27 0Z" fill="#ED2B50" p-id="10141"></path><path d="M648.9 634.9m-13.5 0a13.5 13.5 0 1 0 27 0 13.5 13.5 0 1 0-27 0Z" fill="#ED2B50" p-id="10142"></path><path d="M708.1 634.9m-13.5 0a13.5 13.5 0 1 0 27 0 13.5 13.5 0 1 0-27 0Z" fill="#ED2B50" p-id="10143"></path><path d="M589.6 811.6m-13.5 0a13.5 13.5 0 1 0 27 0 13.5 13.5 0 1 0-27 0Z" fill="#ED2B50" p-id="10144"></path><path d="M648.9 811.6m-13.5 0a13.5 13.5 0 1 0 27 0 13.5 13.5 0 1 0-27 0Z" fill="#ED2B50" p-id="10145"></path><path d="M708.1 811.6m-13.5 0a13.5 13.5 0 1 0 27 0 13.5 13.5 0 1 0-27 0Z" fill="#ED2B50" p-id="10146"></path><path d="M589.6 900m-13.5 0a13.5 13.5 0 1 0 27 0 13.5 13.5 0 1 0-27 0Z" fill="#ED2B50" p-id="10147"></path><path d="M648.9 900m-13.5 0a13.5 13.5 0 1 0 27 0 13.5 13.5 0 1 0-27 0Z" fill="#ED2B50" p-id="10148"></path><path d="M708.1 900m-13.5 0a13.5 13.5 0 1 0 27 0 13.5 13.5 0 1 0-27 0Z" fill="#ED2B50" p-id="10149"></path><path d="M648.9 723.2m-13.5 0a13.5 13.5 0 1 0 27 0 13.5 13.5 0 1 0-27 0Z" fill="#ED2B50" p-id="10150"></path><path d="M708.1 723.2m-13.5 0a13.5 13.5 0 1 0 27 0 13.5 13.5 0 1 0-27 0Z" fill="#ED2B50" p-id="10151"></path><path d="M159.742 711.507l5.343-32.058 6.708 1.118-5.343 32.058zM173.937 713.943l5.343-32.058 6.707 1.118-5.343 32.058zM145.63 709.186l5.343-32.058 6.707 1.118-5.343 32.058z" fill="#FF9522" p-id="10152"></path><path d="M189.9 682.3l-43.8-7.3c-2.5-0.4-4.2-2.8-3.8-5.4l1.8-11.1c0.4-2.5 2.8-4.2 5.4-3.8l43.8 7.3c2.5 0.4 4.2 2.8 3.8 5.4l-1.8 11.1c-0.5 2.5-2.9 4.2-5.4 3.8z" fill="#FFCB27" p-id="10153"></path><path d="M189.3 685.7l-43.8-7.3c-4.4-0.7-7.4-4.9-6.6-9.3l1.8-11.1c0.7-4.4 4.9-7.4 9.3-6.6l43.8 7.3c4.4 0.7 7.4 4.9 6.6 9.3l-1.8 11.1c-0.7 4.3-4.9 7.3-9.3 6.6z m-40.4-27.6c-0.7-0.1-1.3 0.4-1.4 1l-1.8 11.1c-0.1 0.7 0.4 1.3 1 1.4l43.8 7.3c0.7 0.1 1.3-0.4 1.4-1l1.8-11.1c0.1-0.7-0.4-1.3-1-1.4l-43.8-7.3z" fill="#2D2D2D" p-id="10154"></path><path d="M203.9 543.8l-26.1-4.4c-2.2-0.4-3.7-2.5-3.4-4.7l1.5-8.8c0.4-2.2 2.5-3.7 4.7-3.4l26.1 4.4c2.2 0.4 3.7 2.5 3.4 4.7l-1.5 8.8c-0.4 2.3-2.5 3.8-4.7 3.4z" fill="#FFCB27" p-id="10155"></path><path d="M203.3 547.2l-26.1-4.4c-4.1-0.7-6.8-4.6-6.2-8.6l1.5-8.8c0.7-4.1 4.6-6.8 8.6-6.2l26.1 4.4c4.1 0.7 6.8 4.6 6.2 8.6L212 541c-0.7 4.1-4.6 6.8-8.7 6.2zM180 526c-0.4-0.1-0.7 0.2-0.8 0.5l-1.5 8.8c-0.1 0.4 0.2 0.7 0.5 0.8l26.1 4.4c0.4 0.1 0.7-0.2 0.8-0.5l1.5-8.8c0.1-0.4-0.2-0.7-0.5-0.8L180 526z" fill="#2D2D2D" p-id="10156"></path><path d="M199.7 666.9l-57.9-9.7c-13.8-2.3-23.1-15.4-20.8-29.2l11.9-71.3c2.3-13.8 15.4-23.1 29.2-20.8l57.9 9.7c13.8 2.3 23.1 15.4 20.8 29.2L228.9 646c-2.3 13.8-15.4 23.2-29.2 20.9z" fill="#F84A63" p-id="10157"></path><path d="M199.1 670.3l-57.9-9.7c-15.7-2.6-26.3-17.5-23.7-33.1l11.9-71.3c2.6-15.7 17.5-26.3 33.1-23.7l57.9 9.7c15.7 2.6 26.3 17.5 23.7 33.1l-11.9 71.3c-2.5 15.7-17.4 26.3-33.1 23.7z m-37.6-131.1c-11.9-2-23.3 6.1-25.3 18l-11.9 71.3c-2 11.9 6.1 23.3 18 25.3l57.9 9.7c11.9 2 23.3-6.1 25.3-18l11.9-71.3c2-11.9-6.1-23.3-18-25.3l-57.9-9.7z" fill="#2D2D2D" p-id="10158"></path><path d="M199.7 666.7l-57.9-9.7c-13.8-2.3-23.1-15.4-20.8-29.2l11.9-71.3c2.3-13.8 15.4-23.1 29.2-20.8l57.9 9.7c13.8 2.3 23.1 15.4 20.8 29.2l-11.9 71.3c-2.3 13.8-15.4 23.1-29.2 20.8z" fill="#F84A63" p-id="10159"></path><path d="M199.2 670.1l-57.9-9.7c-15.7-2.6-26.3-17.5-23.7-33.1l11.9-71.3c2.6-15.7 17.5-26.3 33.1-23.7l57.9 9.7c15.7 2.6 26.3 17.5 23.7 33.1l-11.9 71.3c-2.6 15.7-17.5 26.3-33.1 23.7z m-37.7-131c-11.9-2-23.3 6.1-25.3 18l-11.9 71.3c-2 11.9 6.1 23.3 18 25.3l57.9 9.7c11.9 2 23.3-6.1 25.3-18l11.9-71.3c2-11.9-6.1-23.3-18-25.3l-57.9-9.7z" fill="#2D2D2D" p-id="10160"></path><path d="M235.1 552.1L220.3 641c-2.5 14.9-16.8 25.1-31.7 22.6l-52.3-8.7c2.4 1.3 5.1 2.2 7.9 2.7l57.9 9.7c13.8 2.3 26.9-7.1 29.2-20.8l11.9-71.3c1.5-8.9-1.9-17.5-8.1-23.1z" fill="#ED2B50" p-id="10161"></path><path d="M133.445 552.944l108.01 18.002-1.15 6.905-108.01-18.002zM129.44 577.047l108.012 18.001-1.151 6.905-108.01-18.002zM125.953 598.256l108.01 18.001-1.15 6.905-108.01-18.002zM121.544 624.654l108.01 18.002-1.15 6.904-108.011-18.001z" fill="#FFCB27" p-id="10162"></path><path d="M199.1 670.3l-57.9-9.7c-15.7-2.6-26.3-17.5-23.7-33.1l11.9-71.3c2.6-15.7 17.5-26.3 33.1-23.7l57.9 9.7c15.7 2.6 26.3 17.5 23.7 33.1l-11.9 71.3c-2.5 15.7-17.4 26.3-33.1 23.7z m-37.6-131.1c-11.9-2-23.3 6.1-25.3 18l-11.9 71.3c-2 11.9 6.1 23.3 18 25.3l57.9 9.7c11.9 2 23.3-6.1 25.3-18l11.9-71.3c2-11.9-6.1-23.3-18-25.3l-57.9-9.7z" fill="#2D2D2D" p-id="10163"></path><path d="M143.6 571.5c-0.1 0-0.2 0-0.3-0.1-0.1 0-0.2-0.1-0.3-0.1-0.1 0-0.2-0.1-0.3-0.1-0.1 0-0.2-0.1-0.3-0.2-0.1-0.1-0.2-0.1-0.3-0.2-0.1-0.1-0.2-0.1-0.3-0.2l-0.2-0.2c-0.1-0.1-0.1-0.2-0.2-0.3-0.1-0.1-0.1-0.2-0.2-0.3-0.1-0.1-0.1-0.2-0.2-0.3 0-0.1-0.1-0.2-0.1-0.3 0-0.1-0.1-0.2-0.1-0.3 0-0.1 0-0.2-0.1-0.3v-0.3-0.3-0.3c0-0.1 0-0.2 0.1-0.3 0-0.1 0.1-0.2 0.1-0.3 0-0.1 0.1-0.2 0.1-0.3 0-0.1 0.1-0.2 0.2-0.3 0.1-0.1 0.1-0.2 0.2-0.3 0.1-0.1 0.1-0.2 0.2-0.3l0.2-0.2c0.1-0.1 0.2-0.1 0.3-0.2 0.1-0.1 0.2-0.1 0.3-0.2 0.1-0.1 0.2-0.1 0.3-0.2 0.1 0 0.2-0.1 0.3-0.1 0.1 0 0.2-0.1 0.3-0.1 0.1 0 0.2 0 0.3-0.1h0.6c0.2 0 0.4 0.1 0.7 0.1 0.1 0 0.2 0.1 0.3 0.1 0.1 0 0.2 0.1 0.3 0.1 0.1 0 0.2 0.1 0.3 0.2 0.1 0.1 0.2 0.1 0.3 0.2 0.1 0.1 0.2 0.1 0.3 0.2l0.2 0.2c0.1 0.1 0.1 0.2 0.2 0.3 0.1 0.1 0.1 0.2 0.2 0.3 0.1 0.1 0.1 0.2 0.2 0.3 0 0.1 0.1 0.2 0.1 0.3 0 0.1 0.1 0.2 0.1 0.3 0 0.1 0 0.2 0.1 0.3V568.6c0 0.1 0 0.2-0.1 0.3 0 0.1-0.1 0.2-0.1 0.3 0 0.1-0.1 0.2-0.1 0.3-0.1 0.1-0.1 0.2-0.2 0.3-0.1 0.1-0.1 0.2-0.2 0.3-0.1 0.1-0.1 0.2-0.2 0.3l-0.2 0.2c-0.1 0.1-0.2 0.1-0.3 0.2-0.1 0.1-0.2 0.1-0.3 0.2-0.1 0.1-0.2 0.1-0.3 0.2-0.1 0-0.2 0.1-0.3 0.1-0.1 0-0.2 0.1-0.3 0.1-0.1 0-0.2 0-0.3 0.1h-0.6c-0.2 0.1-0.3 0-0.4 0z" fill="#FFFFFF" p-id="10164"></path><path d="M145.4 561.9h-0.2c-1.8-0.4-3-2.3-2.5-4.1 1-4.3 3.8-8.1 7.8-10.6 3.9-2.5 8.5-3.4 12.9-2.7 1.9 0.3 3.1 2.1 2.8 3.9-0.3 1.9-2.1 3.1-3.9 2.8-5.7-1-11.7 2.8-12.9 8.1-0.6 1.7-2.3 2.9-4 2.6z" fill="#FFFFFF" p-id="10165"></path><path d="M196.898 484.73l7.496 1.249-6.05 36.299-7.496-1.25z" fill="#2D2D2D" p-id="10166"></path><path d="M850.56 680.732l6.708-1.118 5.343 32.058-6.708 1.118zM836.465 683.12l6.708-1.118 5.343 32.058-6.708 1.118zM864.754 678.328l6.708-1.118 5.343 32.058-6.708 1.118z" fill="#FF9522" p-id="10167"></path><path d="M832.5 682.3l43.8-7.3c2.5-0.4 4.2-2.8 3.8-5.4l-1.8-11.1c-0.4-2.5-2.8-4.2-5.4-3.8l-43.8 7.3c-2.5 0.4-4.2 2.8-3.8 5.4l1.8 11.1c0.5 2.5 2.9 4.2 5.4 3.8z" fill="#FFCB27" p-id="10168"></path><path d="M823.8 679l-1.8-11c-0.7-4.4 2.2-8.6 6.6-9.3l43.8-7.3c4.4-0.7 8.6 2.2 9.3 6.6l1.8 11.1c0.7 4.4-2.2 8.6-6.6 9.3l-43.8 7.3c-4.4 0.7-8.6-2.3-9.3-6.7z m5.9-13.6c-0.7 0.1-1.1 0.8-1 1.4l1.8 11.1c0.1 0.7 0.8 1.1 1.4 1l43.8-7.3c0.7-0.1 1.1-0.8 1-1.4l-1.8-11.1c-0.1-0.7-0.8-1.1-1.4-1l-43.8 7.3z" fill="#2D2D2D" p-id="10169"></path><path d="M818.5 543.8l26.1-4.4c2.2-0.4 3.7-2.5 3.4-4.7l-1.5-8.8c-0.4-2.2-2.5-3.7-4.7-3.4l-26.1 4.4c-2.2 0.4-3.7 2.5-3.4 4.7l1.5 8.8c0.4 2.3 2.5 3.8 4.7 3.4z" fill="#FFCB27" p-id="10170"></path><path d="M810.5 541l-1.5-8.8c-0.7-4.1 2.1-7.9 6.2-8.6l26.1-4.4c4.1-0.7 7.9 2.1 8.6 6.2l1.5 8.8c0.7 4.1-2.1 7.9-6.2 8.6l-26.1 4.4c-4.1 0.6-7.9-2.1-8.6-6.2z m5.8-10.7c-0.4 0.1-0.6 0.4-0.5 0.8l1.5 8.8c0.1 0.4 0.4 0.6 0.8 0.5l26.1-4.4c0.4-0.1 0.6-0.4 0.5-0.8l-1.5-8.8c-0.1-0.4-0.4-0.6-0.8-0.5l-26.1 4.4z" fill="#2D2D2D" p-id="10171"></path><path d="M822.7 666.9l57.9-9.7c13.8-2.3 23.1-15.4 20.8-29.2l-11.9-71.3c-2.3-13.8-15.4-23.1-29.2-20.8l-57.9 9.7c-13.8 2.3-23.1 15.4-20.8 29.2l11.9 71.3c2.3 13.7 15.5 23.1 29.2 20.8z" fill="#F84A63" p-id="10172"></path><path d="M790.2 646.6l-11.9-71.3c-2.6-15.7 8-30.5 23.7-33.1l57.9-9.7c15.7-2.6 30.5 8 33.1 23.7l11.9 71.3c2.6 15.7-8 30.5-23.7 33.1l-57.9 9.7c-15.7 2.6-30.5-8-33.1-23.7z m12.9-97.7c-11.9 2-20 13.3-18 25.3l11.9 71.3c2 11.9 13.3 20 25.3 18l57.9-9.7c11.9-2 20-13.3 18-25.3l-11.9-71.3c-2-11.9-13.3-20-25.3-18l-57.9 9.7z" fill="#2D2D2D" p-id="10173"></path><path d="M822.7 666.7l57.9-9.7c13.8-2.3 23.1-15.4 20.8-29.2l-11.9-71.3c-2.3-13.8-15.4-23.1-29.2-20.8l-57.9 9.7c-13.8 2.3-23.1 15.4-20.8 29.2l11.9 71.3c2.3 13.8 15.4 23.1 29.2 20.8z" fill="#F84A63" p-id="10174"></path><path d="M790.1 646.5l-11.9-71.3c-2.6-15.7 8-30.5 23.7-33.1l57.9-9.7c15.7-2.6 30.5 8 33.1 23.7l11.9 71.3c2.6 15.7-8 30.5-23.7 33.1l-57.9 9.7c-15.6 2.5-30.5-8.1-33.1-23.7z m12.9-97.7c-11.9 2-20 13.3-18 25.3l11.9 71.3c2 11.9 13.3 20 25.3 18l57.9-9.7c11.9-2 20-13.3 18-25.3l-11.9-71.3c-2-11.9-13.3-20-25.3-18l-57.9 9.7z" fill="#2D2D2D" p-id="10175"></path><path d="M787.3 552.1l14.8 88.9c2.5 14.9 16.8 25.1 31.7 22.6l52.3-8.7c-2.4 1.3-5.1 2.2-7.9 2.7l-57.9 9.7c-13.8 2.3-26.9-7.1-29.2-20.8l-11.9-71.3c-1.4-8.9 1.9-17.5 8.1-23.1z" fill="#ED2B50" p-id="10176"></path><path d="M890.19 559.792l-108.011 18.002-1.151-6.905 108.01-18.002zM894.113 583.85l-108.01 18.002-1.152-6.905 108.011-18.002zM897.717 605.184l-108.01 18.002-1.151-6.905 108.01-18.002zM902.09 631.46L794.078 649.46l-1.151-6.904 108.01-18.002z" fill="#FFCB27" p-id="10177"></path><path d="M790.2 646.6l-11.9-71.3c-2.6-15.7 8-30.5 23.7-33.1l57.9-9.7c15.7-2.6 30.5 8 33.1 23.7l11.9 71.3c2.6 15.7-8 30.5-23.7 33.1l-57.9 9.7c-15.7 2.6-30.5-8-33.1-23.7z m12.9-97.7c-11.9 2-20 13.3-18 25.3l11.9 71.3c2 11.9 13.3 20 25.3 18l57.9-9.7c11.9-2 20-13.3 18-25.3l-11.9-71.3c-2-11.9-13.3-20-25.3-18l-57.9 9.7z" fill="#2D2D2D" p-id="10178"></path><path d="M878.8 571.5c0.1 0 0.2 0 0.3-0.1 0.1 0 0.2-0.1 0.3-0.1 0.1 0 0.2-0.1 0.3-0.1 0.1 0 0.2-0.1 0.3-0.2 0.1-0.1 0.2-0.1 0.3-0.2 0.1-0.1 0.2-0.1 0.3-0.2l0.2-0.2c0.1-0.1 0.1-0.2 0.2-0.3 0.1-0.1 0.1-0.2 0.2-0.3 0.1-0.1 0.1-0.2 0.2-0.3 0-0.1 0.1-0.2 0.1-0.3 0-0.1 0.1-0.2 0.1-0.3 0-0.1 0-0.2 0.1-0.3v-0.3-0.3-0.3c0-0.1 0-0.2-0.1-0.3 0-0.1-0.1-0.2-0.1-0.3 0-0.1-0.1-0.2-0.1-0.3 0-0.1-0.1-0.2-0.2-0.3-0.1-0.1-0.1-0.2-0.2-0.3-0.1-0.1-0.1-0.2-0.2-0.3l-0.2-0.2c-0.1-0.1-0.2-0.1-0.3-0.2-0.1-0.1-0.2-0.1-0.3-0.2-0.1-0.1-0.2-0.1-0.3-0.2-0.1 0-0.2-0.1-0.3-0.1-0.1 0-0.2-0.1-0.3-0.1-0.1 0-0.2 0-0.3-0.1h-0.6c-0.2 0-0.4 0.1-0.7 0.1-0.1 0-0.2 0.1-0.3 0.1-0.1 0-0.2 0.1-0.3 0.1-0.1 0-0.2 0.1-0.3 0.2-0.1 0.1-0.2 0.1-0.3 0.2-0.1 0.1-0.2 0.1-0.3 0.2l-0.2 0.2c-0.1 0.1-0.1 0.2-0.2 0.3-0.1 0.1-0.1 0.2-0.2 0.3-0.1 0.1-0.1 0.2-0.2 0.3 0 0.1-0.1 0.2-0.1 0.3 0 0.1-0.1 0.2-0.1 0.3 0 0.1 0 0.2-0.1 0.3V568.6c0 0.1 0 0.2 0.1 0.3 0 0.1 0.1 0.2 0.1 0.3 0 0.1 0.1 0.2 0.1 0.3 0.1 0.1 0.1 0.2 0.2 0.3 0.1 0.1 0.1 0.2 0.2 0.3 0.1 0.1 0.1 0.2 0.2 0.3l0.2 0.2c0.1 0.1 0.2 0.1 0.3 0.2 0.1 0.1 0.2 0.1 0.3 0.2 0.1 0.1 0.2 0.1 0.3 0.2 0.1 0 0.2 0.1 0.3 0.1 0.1 0 0.2 0.1 0.3 0.1 0.1 0 0.2 0 0.3 0.1h0.6c0.2 0.1 0.3 0 0.4 0z" fill="#FFFFFF" p-id="10179"></path><path d="M877.1 561.9h0.2c1.8-0.4 3-2.3 2.5-4.1-1-4.3-3.8-8.1-7.8-10.6-3.9-2.5-8.5-3.4-12.9-2.7-1.9 0.3-3.1 2.1-2.8 3.9 0.3 1.9 2.1 3.1 3.9 2.8 5.7-1 11.7 2.8 12.9 8.1 0.5 1.7 2.2 2.9 4 2.6z" fill="#FFFFFF" p-id="10180"></path><path d="M831.618 520.968l-7.497 1.25-6.05-36.3 7.497-1.25z" fill="#2D2D2D" p-id="10181"></path></svg>