<?xml version="1.0" standalone="no"?><!DOCTYPE svg PUBLIC "-//W3C//DTD SVG 1.1//EN" "http://www.w3.org/Graphics/SVG/1.1/DTD/svg11.dtd"><svg class="icon" width="200px" height="200.00px" viewBox="0 0 1024 1024" version="1.1" xmlns="http://www.w3.org/2000/svg"><path d="M134.6048 361.8304v399.5648c0 73.0624 59.2384 132.3008 132.3008 132.3008h495.3088c73.0624 0 132.3008-59.2384 132.3008-132.3008V361.8304H134.6048z" fill="#FF5F5F" /><path d="M762.2144 165.888h-19.1488v-45.7216c0-8.4992-6.8608-15.36-15.36-15.36s-15.36 6.8608-15.36 15.36v45.7216H315.5968v-45.7216c0-8.4992-6.8608-15.36-15.36-15.36s-15.36 6.8608-15.36 15.36v45.7216h-17.9712c-81.408 0-147.6608 66.2528-147.6608 147.6608v447.7952c0 81.408 66.2528 147.6608 147.6608 147.6608h495.3088c81.408 0 147.6608-66.2528 147.6608-147.6608V313.5488c0-81.408-66.2528-147.6608-147.6608-147.6608z m-495.3088 30.72h17.9712v66.048c0 8.4992 6.8608 15.36 15.36 15.36s15.36-6.8608 15.36-15.36V196.608h396.6976v66.048c0 8.4992 6.8608 15.36 15.36 15.36s15.36-6.8608 15.36-15.36V196.608h19.1488c64.4608 0 116.9408 52.48 116.9408 116.9408v23.0912H149.9648v-23.0912c0-64.4608 52.48-116.9408 116.9408-116.9408z m495.3088 681.728H266.9056c-64.4608 0-116.9408-52.48-116.9408-116.9408V367.36h729.1904v393.984c0 64.512-52.4288 116.992-116.9408 116.992z" fill="#424242" /><path d="M389.7856 786.176c-32.2048 0-98.6624-27.5968-98.6624-112.9984 0-8.4992 6.8608-15.36 15.36-15.36s15.36 6.8608 15.36 15.36c0 77.4144 67.2768 82.2784 67.9424 82.2784 49.3056 0 73.984-22.272 75.4688-68.0448 0.6144-18.5344-4.2496-32.2048-14.7968-41.728-23.8592-21.5552-69.6832-16.0768-70.144-16.0256-4.4032 0.6144-8.8064-0.768-12.1344-3.6864s-5.2224-7.1168-5.2224-11.5712v-7.936c0-4.352 1.8432-8.4992 5.0688-11.4176 3.2256-2.9184 7.5776-4.352 11.8784-3.84 12.3904 1.2288 50.2784 0.5632 60.7744-18.2272 7.5264-13.4656 9.2672-38.7072-0.9728-56.0128-8.3456-14.08-23.3984-21.1968-44.8-21.1968H394.24c-20.3264 0.1536-36.1472 5.9392-47.0016 17.2032-18.3808 19.0976-18.0224 48.6912-18.0224 48.9984a15.34464 15.34464 0 0 1-14.8992 15.8208h-0.4608c-8.2944 0-15.104-6.5536-15.36-14.8992-0.0512-1.7408-0.9728-42.5984 26.624-71.2192 16.7936-17.4592 39.9872-26.368 68.9152-26.5728h0.8704c41.1136 0 61.3888 19.712 71.2192 36.3008 16.7936 28.416 13.4144 65.0752 1.3312 86.6304-4.9152 8.8064-11.776 15.36-19.5072 20.3264 8.192 3.5328 16.128 8.2944 23.0912 14.592 17.408 15.7696 25.8048 37.7856 24.9344 65.536-1.9968 62.0032-40.704 97.6896-106.1888 97.6896zM640.1024 785.2032c-60.6208 0-108.0832-70.7072-108.0832-160.9728s47.4624-160.9728 108.0832-160.9728 108.0832 70.7072 108.0832 160.9728-47.4624 160.9728-108.0832 160.9728z m0-291.1744c-41.9328 0-77.3632 59.648-77.3632 130.2528s35.4304 130.2528 77.3632 130.2528 77.3632-59.648 77.3632-130.2528-35.4304-130.2528-77.3632-130.2528z" fill="#FFFFFF" /></svg>