<?xml version="1.0" standalone="no"?><!DOCTYPE svg PUBLIC "-//W3C//DTD SVG 1.1//EN" "http://www.w3.org/Graphics/SVG/1.1/DTD/svg11.dtd"><svg class="icon" width="200px" height="200.00px" viewBox="0 0 1024 1024" version="1.1" xmlns="http://www.w3.org/2000/svg"><path d="M508.8256 540.928m-382.976 0a382.976 382.976 0 1 0 765.952 0 382.976 382.976 0 1 0-765.952 0Z" fill="#FF5F5F" /><path d="M508.8256 939.264c-219.648 0-398.336-178.688-398.336-398.336s178.688-398.336 398.336-398.336 398.336 178.688 398.336 398.336-178.7392 398.336-398.336 398.336z m0-765.952c-202.7008 0-367.616 164.9152-367.616 367.616 0 202.7008 164.9152 367.616 367.616 367.616 202.7008 0 367.616-164.9152 367.616-367.616-0.0512-202.7008-164.9152-367.616-367.616-367.616z" fill="#424242" /><path d="M768.3072 527.6672h-246.9888V288.9728c0-8.4992-6.8608-15.36-15.36-15.36s-15.36 6.8608-15.36 15.36v238.6944h-11.008c-8.4992 0-15.36 6.8608-15.36 15.36s6.8608 15.36 15.36 15.36h11.008v17.0496c0 8.4992 6.8608 15.36 15.36 15.36s15.36-6.8608 15.36-15.36v-17.0496h246.9888c8.4992 0 15.36-6.8608 15.36-15.36s-6.912-15.36-15.36-15.36z" fill="#FFFFFF" /><path d="M114.688 266.6496a15.36512 15.36512 0 0 1-10.496-26.5728l140.9536-131.9424a15.36512 15.36512 0 0 1 21.7088 0.7168 15.36512 15.36512 0 0 1-0.7168 21.7088L125.184 262.5024c-2.9696 2.7648-6.7072 4.1472-10.496 4.1472zM905.984 266.6496c-3.7376 0-7.5264-1.3824-10.496-4.1472L754.5344 130.56a15.36512 15.36512 0 0 1-0.7168-21.7088 15.36512 15.36512 0 0 1 21.7088-0.7168L916.48 240.0768a15.36512 15.36512 0 0 1-10.496 26.5728z" fill="#424242" /></svg>