<?xml version="1.0" standalone="no"?><!DOCTYPE svg PUBLIC "-//W3C//DTD SVG 1.1//EN" "http://www.w3.org/Graphics/SVG/1.1/DTD/svg11.dtd"><svg t="1691756377818" class="icon" viewBox="0 0 1024 1024" version="1.1" xmlns="http://www.w3.org/2000/svg" p-id="9218" xmlns:xlink="http://www.w3.org/1999/xlink" width="200" height="200"><path d="M298.688 170.688h42.688v42.688h-42.688z" p-id="9219"></path><path d="M341.312 170.688H384v42.688h-42.688z" fill="#FFF100" p-id="9220"></path><path d="M384 170.688h42.688v42.688H384zM426.688 170.688h42.688v42.688h-42.688z" fill="#E50046" p-id="9221"></path><path d="M469.312 170.688H512v42.688h-42.688z" fill="#E50046" p-id="9222"></path><path d="M298.688 213.312h42.688V256h-42.688z" p-id="9223"></path><path d="M341.312 213.312H384V256h-42.688zM384 213.312h42.688V256H384zM426.688 213.312h42.688V256h-42.688z" fill="#E50046" p-id="9224"></path><path d="M469.312 213.312H512V256h-42.688z" fill="#E50046" p-id="9225"></path><path d="M256 256h42.688v42.688H256z" p-id="9226"></path><path d="M298.688 256h42.688v42.688h-42.688z" fill="#E50046" p-id="9227"></path><path d="M341.312 256H384v42.688h-42.688zM384 256h42.688v42.688H384z" fill="#E50046" p-id="9228"></path><path d="M426.688 256h42.688v42.688h-42.688z" fill="#FFF100" p-id="9229"></path><path d="M469.312 256H512v42.688h-42.688z" fill="#FFF100" p-id="9230"></path><path d="M256 298.688h42.688v42.688H256z" p-id="9231"></path><path d="M298.688 298.688h42.688v42.688h-42.688z" fill="#E50046" p-id="9232"></path><path d="M341.312 298.688H384v42.688h-42.688zM384 298.688h42.688v42.688H384z" fill="#E50046" p-id="9233"></path><path d="M426.688 298.688h42.688v42.688h-42.688z" fill="#FFF100" p-id="9234"></path><path d="M469.312 298.688H512v42.688h-42.688z" fill="#FFF100" p-id="9235"></path><path d="M512 170.688h42.688v42.688H512z" fill="#E50046" p-id="9236"></path><path d="M512 213.312h42.688V256H512zM512 256h42.688v42.688H512zM512 298.688h42.688v42.688H512z" fill="#FFF100" p-id="9237"></path><path d="M554.688 170.688h42.688v42.688h-42.688z" fill="#E50046" p-id="9238"></path><path d="M554.688 213.312h42.688V256h-42.688zM554.688 256h42.688v42.688h-42.688z" fill="#FFF100" p-id="9239"></path><path d="M554.688 298.688h42.688v42.688h-42.688zM597.312 170.688H640v42.624h-42.688z" fill="#E50046" p-id="9240"></path><path d="M597.312 213.312H640V256h-42.688zM597.312 256H640v42.688h-42.688z" fill="#FFF100" p-id="9241"></path><path d="M597.312 298.688H640v42.688h-42.688z" fill="#E50046" p-id="9242"></path><path d="M640 213.312h42.688V256H640zM640 256h42.688v42.688H640zM682.688 213.312h42.624V256h-42.624z" fill="#FFF100" p-id="9243"></path><path d="M640 170.688h42.688v42.624H640zM682.688 170.688h42.688v42.624h-42.688z" fill="#E50046" p-id="9244"></path><path d="M725.312 170.688H768v42.624h-42.688z" fill="#E50046" p-id="9245"></path><path d="M426.688 42.688h42.688v42.688h-42.688z" p-id="9246"></path><path d="M469.312 42.688H512v42.688h-42.688zM384 85.312h42.688V128H384z" p-id="9247"></path><path d="M426.688 85.312h42.688V128h-42.688z" fill="#FFF100" p-id="9248"></path><path d="M469.312 85.312H512V128h-42.688zM512 42.688h42.688v42.688H512z" fill="#FFF100" p-id="9249"></path><path d="M512 85.312h42.688V128H512zM554.688 42.688h42.688v42.688h-42.688z" fill="#FFF100" p-id="9250"></path><path d="M554.688 85.312h42.688V128h-42.688z" fill="#FFF100" p-id="9251"></path><path d="M597.312 42.688H640v42.688h-42.688z" fill="#FFF100" p-id="9252"></path><path d="M597.312 85.312H640V128h-42.688zM640 42.688h42.688v42.688H640z" fill="#FFF100" p-id="9253"></path><path d="M640 85.312h42.688V128H640zM682.688 42.688h42.688v42.688h-42.688z" fill="#FFF100" p-id="9254"></path><path d="M682.688 85.312h42.688V128h-42.688z" fill="#FFF100" p-id="9255"></path><path d="M725.312 42.688H768v42.688h-42.688z" fill="#FFF100" p-id="9256"></path><path d="M725.312 85.312H768V128h-42.688z" fill="#FFF100" p-id="9257"></path><path d="M768 42.688h42.688v42.688H768z" p-id="9258"></path><path d="M768 85.312h42.688V128H768zM682.688 298.688h42.688v42.688h-42.688zM725.312 256H768v42.688h-42.688z" fill="#FFF100" p-id="9259"></path><path d="M725.312 298.688H768v42.688h-42.688z" fill="#FFF100" p-id="9260"></path><path d="M768 213.312h42.688V256H768zM768 256h42.688v42.688H768zM768 298.688h42.688v42.688H768z" fill="#E50046" p-id="9261"></path><path d="M810.688 170.688h42.688v42.688h-42.688z" fill="#FFF100" p-id="9262"></path><path d="M810.688 213.312h42.688V256h-42.688z" fill="#FFF100" p-id="9263"></path><path d="M810.688 256h42.688v42.688h-42.688zM810.688 298.688h42.688v42.688h-42.688z" fill="#E50046" p-id="9264"></path><path d="M853.312 213.312H896V256h-42.688zM853.312 256H896v42.688h-42.688zM853.312 298.688H896v42.688h-42.688zM896 256h42.688v42.688H896zM896 298.688h42.688v42.688H896z" fill="#FFF100" p-id="9265"></path><path d="M938.624 298.688h42.688v42.688h-42.688z" fill="#E50046" p-id="9266"></path><path d="M682.688 384h42.688v42.688h-42.688zM682.688 426.688h42.688v42.688h-42.688z" fill="#FFF100" p-id="9267"></path><path d="M682.688 469.312h42.688V512h-42.688zM725.312 384H768v42.688h-42.688z" fill="#FFF100" p-id="9268"></path><path d="M725.312 426.688H768v42.688h-42.688z" fill="#FFF100" p-id="9269"></path><path d="M725.312 469.312H768V512h-42.688zM682.688 512h42.688v42.688h-42.688z" fill="#E50046" p-id="9270"></path><path d="M725.312 512H768v42.688h-42.688zM768 384h42.688v42.688H768zM768 426.688h42.688v42.688H768z" fill="#E50046" p-id="9271"></path><path d="M768 469.312h42.688V512H768z" fill="#E50046" p-id="9272"></path><path d="M768 512h42.688v42.688H768z" fill="#FFF100" p-id="9273"></path><path d="M682.688 554.688h42.688v42.688h-42.688z" fill="#E50046" p-id="9274"></path><path d="M682.688 597.312h42.688V640h-42.688z" fill="#FFF100" p-id="9275"></path><path d="M725.312 554.688H768v42.688h-42.688z" fill="#FFF100" p-id="9276"></path><path d="M725.312 597.312H768V640h-42.688zM682.688 640h42.688v42.688h-42.688z" fill="#FFF100" p-id="9277"></path><path d="M725.312 640H768v42.688h-42.688zM768 554.688h42.688v42.688H768z" fill="#FFF100" p-id="9278"></path><path d="M768 597.312h42.688V640H768z" fill="#FFF100" p-id="9279"></path><path d="M768 640h42.688v42.688H768zM682.688 682.688h42.688v42.688h-42.688z" fill="#E50046" p-id="9280"></path><path d="M725.312 682.688H768v42.688h-42.688z" fill="#E50046" p-id="9281"></path><path d="M768 682.688h42.688v42.688H768zM682.688 725.312h42.688V768h-42.688z" p-id="9282"></path><path d="M725.312 725.312H768V768h-42.688z" p-id="9283"></path><path d="M810.688 384h42.688v42.688h-42.688zM810.688 426.688h42.688v42.688h-42.688z" fill="#E50046" p-id="9284"></path><path d="M810.688 469.312h42.688V512h-42.688zM810.688 512h42.688v42.688h-42.688zM810.688 554.688h42.688v42.688h-42.688z" fill="#FFF100" p-id="9285"></path><path d="M810.688 597.312h42.688V640h-42.688z" fill="#FFF100" p-id="9286"></path><path d="M810.688 640h42.688v42.688h-42.688z" fill="#E50046" p-id="9287"></path><path d="M810.688 682.688h42.688v42.688h-42.688z" p-id="9288"></path><path d="M853.312 384H896v42.688h-42.688zM853.312 426.688H896v42.688h-42.688z" fill="#FFF100" p-id="9289"></path><path d="M853.312 469.312H896V512h-42.688zM896 384h42.688v42.688H896zM896 426.688h42.688v42.688H896z" fill="#FFF100" p-id="9290"></path><path d="M896 469.312h42.688V512H896zM853.312 512H896v42.688h-42.688z" fill="#FFF100" p-id="9291"></path><path d="M896 512h42.688v42.688H896zM938.624 384h42.688v42.688h-42.688zM938.688 426.688h42.688v42.688h-42.688z" fill="#E50046" p-id="9292"></path><path d="M938.688 469.312h42.688V512h-42.688z" fill="#E50046" p-id="9293"></path><path d="M938.688 512h42.688v42.688h-42.688z" p-id="9294"></path><path d="M853.312 554.688H896v42.688h-42.688z" fill="#FFF100" p-id="9295"></path><path d="M853.312 597.312H896V640h-42.688zM896 554.688h42.688v42.688H896z" fill="#E50046" p-id="9296"></path><path d="M896 597.312h42.688V640H896zM853.312 640H896v42.688h-42.688zM938.688 554.688h42.688v42.688h-42.688zM256 384h42.688v42.688H256z" p-id="9297"></path><path d="M298.688 384h42.688v42.688h-42.688z" fill="#E50046" p-id="9298"></path><path d="M341.312 384H384v42.688h-42.688z" fill="#E50046" p-id="9299"></path><path d="M384 384h42.688v42.688H384zM426.688 384h42.688v42.688h-42.688z" fill="#FFF100" p-id="9300"></path><path d="M469.312 384H512v42.688h-42.688z" fill="#E50046" p-id="9301"></path><path d="M256 426.688h42.688v42.688H256z" p-id="9302"></path><path d="M298.688 426.688h42.688v42.688h-42.688z" fill="#E50046" p-id="9303"></path><path d="M341.312 426.688H384v42.688h-42.688z" fill="#E50046" p-id="9304"></path><path d="M384 426.688h42.688v42.688H384zM426.688 426.688h42.688v42.688h-42.688z" fill="#FFF100" p-id="9305"></path><path d="M469.312 426.688H512v42.688h-42.688zM298.688 469.312h42.688V512h-42.688z" fill="#E50046" p-id="9306"></path><path d="M384 469.312h42.688V512H384zM426.688 469.312h42.688V512h-42.688z" fill="#FFF100" p-id="9307"></path><path d="M512 384h42.688v42.688H512zM512 426.688h42.688v42.688H512z" fill="#E50046" p-id="9308"></path><path d="M512 469.312h42.688V512H512z" fill="#E50046" p-id="9309"></path><path d="M298.688 512h42.688v42.688h-42.688z" p-id="9310"></path><path d="M384 512h42.688v42.688H384z" fill="#E50046" p-id="9311"></path><path d="M426.688 512h42.688v42.688h-42.688z" fill="#FFF100" p-id="9312"></path><path d="M554.688 384h42.688v42.688h-42.688zM554.688 426.688h42.688v42.688h-42.688z" fill="#E50046" p-id="9313"></path><path d="M597.312 384H640v42.688h-42.688zM597.312 426.688H640v42.688h-42.688z" fill="#E50046" p-id="9314"></path><path d="M597.312 469.312H640V512h-42.688zM554.688 512h42.688v42.688h-42.688z" fill="#E50046" p-id="9315"></path><path d="M597.312 512H640v42.688h-42.688z" fill="#E50046" p-id="9316"></path><path d="M298.688 554.688h42.688v42.688h-42.688z" p-id="9317"></path><path d="M384 554.688h42.688v42.688H384z" fill="#E50046" p-id="9318"></path><path d="M426.688 554.688h42.688v42.688h-42.688z" fill="#FFF100" p-id="9319"></path><path d="M298.688 597.312h42.688V640h-42.688z" p-id="9320"></path><path d="M426.688 597.312h42.688V640h-42.688z" fill="#E50046" p-id="9321"></path><path d="M512 554.688h42.688v42.688H512z" fill="#FFF100" p-id="9322"></path><path d="M512 597.312h42.688V640H512z" fill="#FFF100" p-id="9323"></path><path d="M256 640h42.688v42.688H256z" p-id="9324"></path><path d="M298.688 640h42.688v42.688h-42.688z" fill="#FFFFFF" p-id="9325"></path><path d="M341.312 640H384v42.688h-42.688z" p-id="9326"></path><path d="M384 640h42.688v42.688H384zM426.688 640h42.688v42.688h-42.688z" fill="#E50046" p-id="9327"></path><path d="M469.312 640H512v42.688h-42.688zM512 640h42.688v42.688H512zM597.312 554.688H640v42.688h-42.688z" fill="#E50046" p-id="9328"></path><path d="M597.312 597.312H640V640h-42.688zM554.688 640h42.688v42.688h-42.688z" fill="#FFF100" p-id="9329"></path><path d="M597.312 640H640v42.688h-42.688z" fill="#FFF100" p-id="9330"></path><path d="M213.312 682.688H256v42.688h-42.688z" p-id="9331"></path><path d="M256 682.688h42.688v42.688H256zM298.688 682.688h42.688v42.688h-42.688z" fill="#FFFFFF" p-id="9332"></path><path d="M341.312 682.688H384v42.688h-42.688z" fill="#E3E7E6" p-id="9333"></path><path d="M384 682.688h42.688v42.688H384zM426.688 682.688h42.688v42.688h-42.688z" p-id="9334"></path><path d="M469.312 682.688H512v42.688h-42.688z" p-id="9335"></path><path d="M512 682.688h42.688v42.688H512zM554.688 682.688h42.688v42.688h-42.688z" fill="#E50046" p-id="9336"></path><path d="M597.312 682.688H640v42.688h-42.688z" fill="#E50046" p-id="9337"></path><path d="M170.688 725.312h42.688V768h-42.688zM341.312 725.312H384V768h-42.688zM128 768h42.688v42.688H128zM512 725.312h42.688V768H512zM554.688 725.312h42.688V768h-42.688z" p-id="9338"></path><path d="M213.312 768H256v42.688h-42.688z" fill="#FFFFFF" p-id="9339"></path><path d="M256 768h42.688v42.688H256z" fill="#E3E7E6" p-id="9340"></path><path d="M298.688 768h42.688v42.688h-42.688z" p-id="9341"></path><path d="M170.688 810.688h42.688v42.688h-42.688z" fill="#FFFFFF" p-id="9342"></path><path d="M213.312 810.688H256v42.688h-42.688z" fill="#E3E7E6" p-id="9343"></path><path d="M256 810.688h42.688v42.688H256z" p-id="9344"></path><path d="M85.312 853.312H128V896h-42.688zM128 853.312h42.688V896H128z" fill="#FFFFFF" p-id="9345"></path><path d="M170.688 853.312h42.688V896h-42.688z" fill="#E3E7E6" p-id="9346"></path><path d="M213.312 853.312H256V896h-42.688z" p-id="9347"></path><path d="M42.688 896h42.688v42.688H42.688z" fill="#FFFFFF" p-id="9348"></path><path d="M85.312 896H128v42.688h-42.688z" fill="#FFFFFF" p-id="9349"></path><path d="M128 896h42.688v42.688H128z" fill="#E3E7E6" p-id="9350"></path><path d="M170.688 896h42.688v42.688h-42.688z" p-id="9351"></path><path d="M42.688 938.688h42.688v42.688H42.688z" fill="#E3E7E6" p-id="9352"></path><path d="M85.312 938.688H128v42.688h-42.688z" fill="#E3E7E6" p-id="9353"></path><path d="M128 938.688h42.688v42.688H128zM597.312 725.312H640V768h-42.688zM42.688 853.312h42.688V896H42.688zM341.312 128H384v42.688h-42.688z" p-id="9354"></path><path d="M384 128h42.688v42.688H384z" fill="#FFF100" p-id="9355"></path><path d="M426.688 128h42.688v42.688h-42.688z" fill="#E50046" p-id="9356"></path><path d="M469.312 128H512v42.688h-42.688z" fill="#E50046" p-id="9357"></path><path d="M256 341.312h42.688V384H256z" p-id="9358"></path><path d="M298.688 341.312h42.688V384h-42.688z" fill="#E50046" p-id="9359"></path><path d="M341.312 341.312H384V384h-42.688z" fill="#E50046" p-id="9360"></path><path d="M384 341.312h42.688V384H384zM426.688 341.312h42.688V384h-42.688z" fill="#FFF100" p-id="9361"></path><path d="M469.312 341.312H512V384h-42.688z" fill="#FFF100" p-id="9362"></path><path d="M512 0h42.688v42.688H512z" p-id="9363"></path><path d="M512 128h42.688v42.688H512zM512 341.312h42.688V384H512z" fill="#E50046" p-id="9364"></path><path d="M554.688 0h42.688v42.688h-42.688z" p-id="9365"></path><path d="M554.688 128h42.688v42.688h-42.688zM554.688 341.312h42.688V384h-42.688z" fill="#E50046" p-id="9366"></path><path d="M597.312 0H640v42.688h-42.688z" p-id="9367"></path><path d="M597.312 128H640v42.688h-42.688zM597.312 341.312H640V384h-42.688z" fill="#E50046" p-id="9368"></path><path d="M640 0h42.688v42.688H640z" p-id="9369"></path><path d="M640 128h42.688v42.688H640zM640 298.688h42.688v42.688H640z" fill="#E50046" p-id="9370"></path><path d="M640 341.312h42.688V384H640zM640 384h42.688v42.688H640z" fill="#E50046" p-id="9371"></path><path d="M640 426.688h42.688v42.688H640z" fill="#FFF100" p-id="9372"></path><path d="M640 469.312h42.688V512H640z" fill="#FFF100" p-id="9373"></path><path d="M640 512h42.688v42.688H640zM640 554.688h42.688v42.688H640z" fill="#E50046" p-id="9374"></path><path d="M640 597.312h42.688V640H640zM640 640h42.688v42.688H640z" fill="#FFF100" p-id="9375"></path><path d="M682.688 0h42.688v42.688h-42.688z" p-id="9376"></path><path d="M682.688 128h42.688v42.688h-42.688z" fill="#E50046" p-id="9377"></path><path d="M682.688 256h42.688v42.688h-42.688zM682.688 341.312h42.688V384h-42.688z" fill="#FFF100" p-id="9378"></path><path d="M725.312 0H768v42.688h-42.688z" p-id="9379"></path><path d="M725.312 128H768v42.688h-42.688z" fill="#FFF100" p-id="9380"></path><path d="M725.312 213.312H768V256h-42.688z" fill="#E50046" p-id="9381"></path><path d="M725.312 341.312H768V384h-42.688z" fill="#FFF100" p-id="9382"></path><path d="M853.312 85.312H896V128h-42.688z" p-id="9383"></path><path d="M853.312 128H896v42.688h-42.688z" fill="#E50046" p-id="9384"></path><path d="M896 128h42.688v42.688H896z" p-id="9385"></path><path d="M896 170.688h42.688v42.688H896z" fill="#E50046" p-id="9386"></path><path d="M938.624 170.688h42.688v42.688h-42.688z" p-id="9387"></path><path d="M938.624 213.312h42.688V256h-42.688zM981.312 256H1024v42.688h-42.688z" p-id="9388"></path><path d="M768 128h42.688v42.688H768zM768 170.688h42.688v42.688H768z" fill="#FFF100" p-id="9389"></path><path d="M768 341.312h42.688V384H768zM640 682.688h42.688v42.688H640z" fill="#E50046" p-id="9390"></path><path d="M640 725.312h42.688V768H640zM810.688 42.688h42.688v42.688h-42.688z" p-id="9391"></path><path d="M810.624 85.312h42.688V128h-42.688z" fill="#E50046" p-id="9392"></path><path d="M810.688 128h42.688v42.688h-42.688z" fill="#FFF100" p-id="9393"></path><path d="M810.688 341.312h42.688V384h-42.688z" fill="#E50046" p-id="9394"></path><path d="M853.312 170.688H896v42.688h-42.688zM853.312 341.312H896V384h-42.688zM896 213.312h42.688V256H896zM896 341.312h42.688V384H896z" fill="#FFF100" p-id="9395"></path><path d="M938.624 256h42.688v42.688h-42.688zM938.624 341.312h42.688V384h-42.688z" fill="#E50046" p-id="9396"></path><path d="M981.312 298.688H1024v42.688h-42.688z" p-id="9397"></path><path d="M981.312 341.312H1024V384h-42.688zM981.312 384H1024v42.688h-42.688zM981.312 426.688H1024v42.688h-42.688z" p-id="9398"></path><path d="M981.312 469.312H1024V512h-42.688zM0 896h42.688v42.688H0zM0 938.688h42.688v42.624H0zM42.688 981.312h42.688V1024H42.688z" p-id="9399"></path><path d="M85.312 981.312H128V1024h-42.688zM256 469.312h42.688V512H256z" p-id="9400"></path><path d="M341.312 469.312H384V512h-42.688z" fill="#E50046" p-id="9401"></path><path d="M469.312 469.312H512V512h-42.688z" fill="#FFF100" p-id="9402"></path><path d="M341.312 512H384v42.688h-42.688z" fill="#E50046" p-id="9403"></path><path d="M469.312 512H512v42.688h-42.688z" fill="#FFF100" p-id="9404"></path><path d="M512 512h42.688v42.688H512zM554.688 469.312h42.688V512h-42.688zM341.312 554.688H384v42.688h-42.688z" fill="#E50046" p-id="9405"></path><path d="M469.312 554.688H512v42.688h-42.688z" fill="#FFF100" p-id="9406"></path><path d="M341.312 597.312H384V640h-42.688zM384 597.312h42.688V640H384z" fill="#E50046" p-id="9407"></path><path d="M469.312 597.312H512V640h-42.688zM554.688 554.688h42.688v42.688h-42.688z" fill="#FFF100" p-id="9408"></path><path d="M554.688 597.312h42.688V640h-42.688z" fill="#FFF100" p-id="9409"></path><path d="M213.312 725.312H256V768h-42.688zM256 725.312h42.688V768H256z" fill="#FFFFFF" p-id="9410"></path><path d="M298.688 725.312h42.688V768h-42.688z" fill="#E3E7E6" p-id="9411"></path><path d="M170.688 768h42.688v42.688h-42.688z" fill="#FFFFFF" p-id="9412"></path><path d="M85.312 810.688H128v42.688h-42.688z" p-id="9413"></path><path d="M128 810.688h42.688v42.688H128z" fill="#FFFFFF" p-id="9414"></path></svg>