<?xml version="1.0" standalone="no"?><!DOCTYPE svg PUBLIC "-//W3C//DTD SVG 1.1//EN" "http://www.w3.org/Graphics/SVG/1.1/DTD/svg11.dtd"><svg t="1691981243574" class="icon" viewBox="0 0 1024 1024" version="1.1" xmlns="http://www.w3.org/2000/svg" p-id="4482" xmlns:xlink="http://www.w3.org/1999/xlink" width="200" height="200"><path d="M636.864 96l166.272 97.824-14.4 38.912c-24.928 67.424 8.512 142.656 74.656 168.032 7.872 3.04 16.032 5.28 24.32 6.656l40.288 6.752v195.648l-40.32 6.752c-69.76 11.744-116.96 78.848-105.44 149.92 1.344 8.448 3.52 16.768 6.496 24.768l14.4 38.912L636.864 928l-25.92-32.16a126.4 126.4 0 0 0-180.128-18.144c-6.496 5.44-12.48 11.52-17.792 18.144L387.136 928l-166.272-97.824 14.4-38.912c24.928-67.392-8.512-142.624-74.656-168.032a126.112 126.112 0 0 0-24.32-6.656L96 609.824v-195.648l40.288-6.752c69.76-11.712 116.992-78.816 105.504-149.888a132.384 132.384 0 0 0-6.528-24.8l-14.4-38.912L387.136 96l25.888 32.16a126.4 126.4 0 0 0 180.16 18.144c6.496-5.44 12.48-11.52 17.792-18.144L636.864 96z m14.624 83.904a193.472 193.472 0 0 1-17.728 16.832 189.44 189.44 0 0 1-261.248-16.832L299.488 222.88c2.304 7.872 4.128 15.936 5.44 24.064 16.48 102.016-47.68 198.592-144.928 222.08v85.952c7.872 1.92 15.616 4.32 23.2 7.232 94.944 36.48 144.928 141.376 116.288 238.944l73.024 42.944c5.568-5.984 11.488-11.584 17.728-16.832a189.44 189.44 0 0 1 261.248 16.832l73.024-42.976a198.784 198.784 0 0 1-5.44-24c-16.512-102.08 47.68-198.656 144.928-222.144v-85.952a189.376 189.376 0 0 1-23.168-7.232c-94.976-36.448-144.96-141.344-116.32-238.944l-73.024-42.944zM512 334.848c88.352 0 160 72.992 160 163.04 0 90.048-71.648 163.008-160 163.008s-160-72.96-160-163.008c0-90.048 71.648-163.04 160-163.04z m0 65.216c-53.024 0-96 43.808-96 97.824s42.976 97.824 96 97.824 96-43.808 96-97.824-42.976-97.824-96-97.824z" fill="#000000" p-id="4483"></path></svg>