<?xml version="1.0" standalone="no"?><!DOCTYPE svg PUBLIC "-//W3C//DTD SVG 1.1//EN" "http://www.w3.org/Graphics/SVG/1.1/DTD/svg11.dtd"><svg t="1679747410810" class="icon" viewBox="0 0 1024 1024" version="1.1" xmlns="http://www.w3.org/2000/svg" p-id="13675" xmlns:xlink="http://www.w3.org/1999/xlink" width="200" height="200"><path d="M705.5 402.7l-152-123.5c-24.1-19.6-58.7-19.6-82.8 0l-152 123.5a65.617 65.617 0 0 0-24.3 51v233.9c0 36.3 29.4 65.7 65.7 65.7h59.4c17.1 0 30.9-13.8 30.9-30.9v-95.6c0-17.1 13.8-30.9 30.9-30.9h61.8c17.1 0 30.9 13.8 30.9 30.9v95.6c0 17.1 13.8 30.9 30.9 30.9H664c36.3 0 65.7-29.4 65.7-65.7V453.7c0-19.8-8.9-38.5-24.2-51z" fill="#FFD939" p-id="13676"></path><path d="M489.4 276.9c1.7 1.1 3.5 2.1 5.1 3.4l174.7 142.5c15.4 12.5 24.3 31.2 24.3 51v233.9c0 18.9-8.1 35.8-20.8 47.8 32.2-4.2 57.2-31.5 57.2-64.8V456.8c0-19.8-8.9-38.5-24.3-51l-171-139.4c-15.6-2.1-31.6 1.5-45.2 10.5z" fill="#F7B52C" p-id="13677"></path><path d="M437.5 728h-71.4c-21.6 0-39.2-17.5-39.2-39.2V437.6c0-13.9 4.6-27.2 12.6-38.3l-8 6.5a65.617 65.617 0 0 0-24.3 51V708c0 21.6 17.5 39.2 39.2 39.2h71.4c13.6 0 24.8-8.9 28.9-21.1-2.9 0.9-5.9 1.9-9.2 1.9z" fill="#F29600" p-id="13678"></path><path d="M664 769.9h-59.4c-24.5 0-44.4-19.9-44.4-44.4v-95.6c0-9.6-7.8-17.3-17.3-17.3h-61.8c-9.6 0-17.3 7.8-17.3 17.3v95.6c0 24.5-19.9 44.4-44.4 44.4H360c-43.7 0-79.2-35.5-79.2-79.2V456.8c0-24 10.7-46.4 29.3-61.5l17.2-14c5.8-4.7 14.3-3.8 19.1 2 4.7 5.8 3.8 14.3-2 19.1l-17.2 14c-12.3 9.9-19.3 24.7-19.3 40.5v233.9c0 28.8 23.4 52.1 52.1 52.1h59.4c9.6 0 17.3-7.8 17.3-17.3V630c0-24.5 19.9-44.4 44.4-44.4h61.8c24.5 0 44.4 19.9 44.4 44.4v95.6c0 9.6 7.8 17.3 17.3 17.3H664c28.8 0 52.1-23.4 52.1-52.1v-234c0-15.8-7-30.5-19.3-40.5L544.9 292.8c-19-15.5-46.7-15.5-65.7 0l-77.7 63.1c-5.8 4.7-14.3 3.8-19.1-2-4.7-5.8-3.8-14.3 2-19.1l77.7-63.1c28.9-23.5 70.9-23.5 99.9 0l152 123.5c18.6 15.1 29.3 37.5 29.3 61.5v233.9c0 43.7-35.6 79.3-79.3 79.3z" fill="#3E3A39" p-id="13679"></path><path d="M461.2 500.5m-14.5 0a14.5 14.5 0 1 0 29 0 14.5 14.5 0 1 0-29 0Z" fill="#3E3A39" p-id="13680"></path><path d="M562.8 500.5m-14.5 0a14.5 14.5 0 1 0 29 0 14.5 14.5 0 1 0-29 0Z" fill="#3E3A39" p-id="13681"></path><path d="M512 520.1c8.4 0 15.4 3.7 19.7 9 3-3.1 4.8-6.6 4.8-9.2 0-6.6-10.9-6-24.4-6-13.5 0-24.4-0.6-24.4 6 0 2.7 1.8 6.1 4.8 9.2 4.1-5.3 11.1-9 19.5-9z" fill="#FFFFFF" p-id="13682"></path><path d="M531.7 529.1c-4.3-5.3-11.3-9-19.7-9-8.4 0-15.4 3.7-19.7 9 4.4 4.7 11.6 8.8 19.7 8.8s15.2-4.1 19.7-8.8z" fill="#E95513" p-id="13683"></path><path d="M679.3 502.7c-0.8 0-1.6-0.1-2.4-0.2-7.4-1.3-12.2-8.4-10.9-15.7 0-0.1 2.1-12.7-2.4-24.9-5.3-14.4-24.5-30.1-30.8-34.4-6.1-4.3-7.7-12.7-3.4-18.8 4.3-6.1 12.7-7.7 18.8-3.4 3.2 2.2 31.6 22.4 40.8 47.4 7 19 4 37.1 3.6 39.1-1.2 6.3-6.9 10.9-13.3 10.9z" fill="#FFFFFF" p-id="13684"></path><path d="M365.8 263.7h-37.4c-3.7 0-6.8-3-6.8-6.8s3-6.8 6.8-6.8h37.4c3.7 0 6.8 3 6.8 6.8s-3 6.8-6.8 6.8z" fill="#F7B52C" p-id="13685"></path><path d="M347.1 282.4c-3.7 0-6.8-3-6.8-6.8v-37.3c0-3.7 3-6.8 6.8-6.8 3.7 0 6.8 3 6.8 6.8v37.3c0 3.8-3 6.8-6.8 6.8z" fill="#F7B52C" p-id="13686"></path><path d="M825.3 563.6c-13.4 0-24.2-10.9-24.2-24.2 0-13.3 10.9-24.2 24.2-24.2 13.3 0 24.2 10.9 24.2 24.2 0 13.4-10.9 24.2-24.2 24.2z m0-34.8c-5.9 0-10.7 4.8-10.7 10.7 0 5.9 4.8 10.7 10.7 10.7 5.9 0 10.7-4.8 10.7-10.7-0.1-5.9-4.8-10.7-10.7-10.7z" fill="#2CA6E0" p-id="13687"></path><path d="M204.9 686.5c-13.3 0-24.2-10.9-24.2-24.2 0-13.4 10.9-24.2 24.2-24.2 13.4 0 24.2 10.9 24.2 24.2 0 13.3-10.8 24.2-24.2 24.2z m0-34.9c-5.9 0-10.7 4.8-10.7 10.7 0 5.9 4.8 10.7 10.7 10.7 5.9 0 10.7-4.8 10.7-10.7 0-5.9-4.8-10.7-10.7-10.7z" fill="#1EAA39" p-id="13688"></path><path d="M687.5 311.5m-10.5 0a10.5 10.5 0 1 0 21 0 10.5 10.5 0 1 0-21 0Z" fill="#0DAC67" p-id="13689"></path><path d="M232.9 545.7m-10.5 0a10.5 10.5 0 1 0 21 0 10.5 10.5 0 1 0-21 0Z" fill="#FAED00" p-id="13690"></path><path d="M462.2 820m-10.5 0a10.5 10.5 0 1 0 21 0 10.5 10.5 0 1 0-21 0Z" fill="#2CA6E0" p-id="13691"></path><path d="M862.7 714.3h-37.4c-3.7 0-6.8-3-6.8-6.8 0-3.7 3-6.8 6.8-6.8h37.4c3.7 0 6.8 3 6.8 6.8s-3.1 6.8-6.8 6.8z" fill="#E95513" p-id="13692"></path><path d="M844 733c-3.7 0-6.8-3-6.8-6.8v-37.3c0-3.7 3-6.8 6.8-6.8 3.7 0 6.8 3 6.8 6.8v37.3c-0.1 3.7-3.1 6.8-6.8 6.8z" fill="#E95513" p-id="13693"></path></svg>